<svg width="1729" height="2837" viewBox="0 0 1729 2837" fill="none" xmlns="http://www.w3.org/2000/svg">
<g clip-path="url(#clip0_527_18)">
<path d="M2172.1 -644.509C2170.85 -615.012 2167.4 -585.467 2160.98 -556.334C2157.73 -541.784 2153.83 -527.329 2148.85 -513.159C2143.91 -498.989 2138.19 -484.993 2131.18 -471.536C2124.22 -458.079 2116.31 -445.003 2107.12 -432.751C2097.93 -420.515 2087.59 -409.023 2076.23 -398.594C2064.88 -388.18 2052.36 -378.797 2038.66 -370.935C2024.94 -363.137 2009.99 -357.162 1994.82 -353.167C1979.65 -349.094 1964.4 -346.891 1949.62 -345.005C1934.8 -343.134 1920.33 -341.613 1906.11 -339.536C1891.91 -337.476 1877.91 -335.035 1864.12 -331.833C1850.33 -328.647 1836.75 -324.748 1823.35 -320.167C1796.6 -310.974 1770.51 -299.436 1745.4 -285.947C1720.28 -272.49 1696.05 -257.322 1672.98 -240.616C1661.46 -232.247 1650.29 -223.45 1639.38 -214.368C1628.59 -205.159 1617.95 -195.776 1607.92 -185.838C1597.9 -175.9 1588.11 -165.74 1579.09 -154.993L1575.65 -151.015L1572.37 -146.926C1570.2 -144.184 1567.93 -141.505 1565.84 -138.731L1559.58 -130.362C1557.44 -127.604 1555.57 -124.688 1553.55 -121.867L1550.57 -117.603C1549.59 -116.176 1548.7 -114.702 1547.75 -113.244C1545.9 -110.328 1544 -107.443 1542.19 -104.495L1536.99 -95.5712L1535.69 -93.3363L1534.5 -91.0539L1532.11 -86.5049C1525.8 -74.3637 1520.22 -61.9213 1516 -49.1303C1515.47 -47.5294 1514.85 -45.9602 1514.37 -44.3594L1512.98 -39.5251C1512.09 -36.3075 1511 -33.1217 1510.35 -29.8565L1508.11 -20.1246L1506.45 -10.3292C1504.58 2.73135 1503.82 15.982 1504.47 29.2644C1505.05 42.5785 1507.03 56.1304 1509.19 70.8552C1511.38 85.5007 1513.33 101.604 1513.28 117.898C1513.29 134.208 1511.54 150.581 1508.29 166.225C1504.97 181.759 1500.66 197.181 1494.72 212.27C1488.85 227.344 1481.01 241.862 1472.92 254.907C1464.9 268.015 1456.87 279.57 1451.83 290.601C1450.62 293.375 1449.26 296.117 1448.37 298.939L1446.87 303.139L1445.73 307.45C1444.82 310.271 1444.43 313.299 1443.86 316.279C1443.57 317.769 1443.27 319.243 1443.19 320.828L1442.73 325.488C1441.49 337.977 1442.24 351.355 1444.2 364.289C1446.23 377.254 1449.62 389.998 1454.51 401.869C1459.39 413.741 1465.84 424.741 1473.83 434.093C1481.8 443.46 1491.31 451.258 1502.2 456.79C1513.02 462.353 1525.04 465.888 1537.62 467.108C1550.19 468.44 1563.27 467.489 1576.16 464.842C1589.06 462.195 1601.75 457.662 1613.82 451.797C1625.83 445.838 1637.26 438.515 1647.42 429.861C1657.58 421.143 1666.22 411.427 1673.13 399.999C1674.81 397.114 1676.6 394.293 1678.07 391.25C1678.83 389.744 1679.64 388.27 1680.39 386.748L1682.49 382.104L1683.54 379.774L1684.49 377.397L1686.41 372.626L1688.12 367.76L1688.98 365.319L1689.74 362.846C1693.94 349.643 1696.81 335.901 1698.77 321.842L1699.49 316.532C1699.69 314.741 1699.96 312.887 1700.12 311.191C1700.45 307.72 1700.91 304.232 1701.07 300.777C1701.63 293.835 1701.63 286.924 1701.37 279.966C1701.12 272.992 1700.36 266.065 1699.68 258.442L1699.44 255.573L1699.26 252.561C1699.12 250.596 1699.14 248.408 1699.14 246.3C1699.28 241.973 1699.69 237.361 1700.98 232.907C1702.1 228.405 1704.02 224.284 1706.05 220.417C1708.2 216.661 1710.53 213.063 1713.21 209.829C1718.51 203.283 1724.64 197.72 1731.22 193.028C1744.39 183.645 1759.11 177.352 1774.31 173.453C1789.51 169.554 1805.3 168.128 1820.95 169.396C1836.57 170.664 1852.11 174.737 1866.28 181.759C1880.38 188.907 1893.17 198.687 1903.3 210.653C1913.51 222.557 1921.48 236.188 1927.09 250.675C1932.75 265.162 1935.84 280.6 1936.32 296.212C1936.57 300.111 1936.26 304.042 1936.13 307.957L1936.06 309.431L1935.89 310.905L1935.54 313.838C1935.27 315.787 1935.15 317.753 1934.75 319.702C1933.4 327.5 1931.1 335.299 1927.68 342.637C1924.32 350.008 1919.72 356.76 1914.65 362.783C1909.58 368.853 1904 374.132 1898.47 379.204C1887.37 389.268 1876.5 398.557 1867.04 409.065C1857.58 419.51 1849.4 430.954 1842.83 443.397C1836.26 455.839 1831.06 469.026 1827.27 482.594C1819.72 509.793 1818.24 538.529 1821.37 566.679C1822.97 580.754 1825.78 594.718 1829.73 608.222C1830.72 611.582 1831.79 614.927 1832.93 618.16L1833.8 620.538L1834.23 621.616L1834.74 622.804L1836.81 627.623C1839.71 633.994 1842.9 640.239 1846.38 646.342C1860.4 670.672 1878.69 692.798 1900.04 710.566C1905.36 715.004 1910.89 719.173 1916.62 722.898C1922.34 726.638 1928.2 730.11 1934.24 732.947C1946.27 738.653 1958.97 742.584 1971.17 742.901C1977.26 743.091 1983.22 742.378 1988.78 740.888C1994.36 739.414 1999.15 736.909 2003.62 733.644C2012.48 727.035 2019.67 715.971 2027.71 703.513C2031.77 697.3 2036.05 690.754 2041.1 684.319C2046.13 677.899 2051.85 671.559 2058.49 665.964C2065.08 660.353 2072.47 655.487 2080.24 651.636C2088 647.721 2096.12 644.899 2104.27 642.791C2120.61 638.623 2137.12 637.497 2153.18 638.163C2169.27 638.845 2184.99 641.301 2200.3 644.979C2215.61 648.688 2230.51 653.601 2244.98 659.513C2259.45 665.425 2273.48 672.383 2287.02 680.372C2300.54 688.36 2313.55 697.347 2325.84 707.618C2338.1 717.905 2349.63 729.491 2359.68 743.027C2364.67 749.811 2369.33 757.055 2373.24 765.027C2377.14 772.984 2380.45 781.543 2382.42 790.831C2384.39 800.072 2385.1 810.058 2383.97 819.774C2383.5 824.64 2382.5 829.395 2381.31 834.023C2380.01 838.604 2378.52 843.121 2376.67 847.337C2373.05 855.865 2368.54 863.599 2363.57 870.653C2358.61 877.722 2353.22 884.157 2347.63 890.164C2336.41 902.179 2324.38 912.481 2312.08 922.039C2287.43 941.059 2261.71 957.052 2235.71 972.125C2209.7 987.119 2183.36 1001.05 2156.89 1014.49C2130.42 1027.92 2103.81 1040.87 2077.15 1053.56C2023.8 1078.91 1970.32 1103.48 1916.82 1127.88C1889.94 1140.14 1862.92 1152.25 1835.75 1163.9C1808.6 1175.58 1781.34 1186.96 1754.14 1198.21C1727 1209.51 1699.74 1220.46 1673.33 1232C1646.96 1243.51 1621.12 1255.46 1598.96 1269.87C1587.9 1277.1 1577.85 1284.98 1568.98 1293.8C1560.16 1302.68 1552.49 1312.57 1545.69 1323.55C1538.86 1334.54 1533.06 1346.52 1528.15 1358.77C1523.25 1371.07 1519.35 1383.83 1516.37 1396.91C1510.39 1423.05 1508.4 1450.37 1509.51 1477.68C1510.6 1505.02 1515.04 1532.4 1522.27 1559.06C1529.43 1585.73 1539.67 1611.63 1552.41 1636.09C1558.8 1648.31 1565.87 1660.15 1573.64 1671.46L1579.58 1679.85L1585.9 1687.93L1589.06 1691.97L1590.64 1694L1592.34 1695.92L1599.12 1703.62L1602.51 1707.48L1606.13 1711.12L1613.32 1718.44C1614.5 1719.7 1615.8 1720.81 1617.07 1721.96L1620.87 1725.42L1624.67 1728.87C1625.94 1730.01 1627.18 1731.22 1628.54 1732.27L1636.53 1738.75C1637.86 1739.83 1639.18 1740.94 1640.54 1741.98L1644.71 1745.01L1653.05 1751.08C1655.88 1753.05 1658.81 1754.85 1661.68 1756.75C1667.37 1760.65 1673.44 1763.98 1679.42 1767.5C1682.37 1769.32 1685.52 1770.8 1688.58 1772.43C1691.67 1774.01 1694.72 1775.68 1697.84 1777.2L1707.3 1781.62C1708.89 1782.35 1710.44 1783.13 1712.04 1783.81L1716.87 1785.82L1726.56 1789.85L1736.42 1793.49C1762.74 1803.21 1790.35 1809.92 1818.33 1815.04C1832.37 1817.41 1846.5 1819.55 1860.75 1820.96C1864.3 1821.38 1867.86 1821.74 1871.44 1822.02L1882.16 1822.94C1889.32 1823.39 1896.49 1823.96 1903.68 1824.24C1932.45 1825.73 1961.39 1825.46 1990.48 1824.47C1997.75 1824.2 2005.04 1823.91 2012.35 1823.58C2016.01 1823.4 2019.69 1823.26 2023.32 1823.04L2034.1 1822.28L2055.67 1820.76L2077.16 1818.27C2080.74 1817.84 2084.34 1817.48 2087.92 1817L2098.62 1815.29C2105.74 1814.1 2112.9 1813.09 2120.02 1811.77C2134.18 1808.82 2148.42 1806.21 2162.42 1802.5C2176.56 1799.26 2190.4 1794.97 2204.36 1790.96L2225.06 1784.17C2226.79 1783.6 2228.53 1783.07 2230.23 1782.45L2235.35 1780.56L2245.59 1776.8C2300.14 1756.58 2352.5 1729.98 2401.88 1698.39L2404.78 1702.55C2398.84 1706.91 2392.99 1711.42 2386.92 1715.61L2377.87 1721.99L2368.68 1728.18C2362.58 1732.36 2356.32 1736.28 2350.07 1740.25C2343.87 1744.33 2337.42 1747.94 2331.1 1751.78C2305.55 1766.74 2279.13 1780.34 2251.93 1792.34L2241.7 1796.78L2236.58 1798.99C2234.87 1799.72 2233.13 1800.37 2231.4 1801.06L2210.6 1809.2C2196.55 1814.08 2182.55 1819.25 2168.21 1823.36C2161.06 1825.46 2153.97 1827.86 2146.71 1829.59L2125.01 1835.16C2117.74 1836.89 2110.4 1838.3 2103.09 1839.89L2092.11 1842.2C2088.43 1842.88 2084.74 1843.44 2081.05 1844.06L2058.89 1847.69L2036.57 1850.29L2025.4 1851.57C2021.7 1851.97 2018.06 1852.25 2014.38 1852.6C2007.03 1853.27 1999.66 1853.9 1992.25 1854.5C1977.45 1855.69 1962.58 1856.58 1947.67 1857.2C1932.75 1857.83 1917.79 1858.12 1902.78 1857.96C1895.28 1857.96 1887.77 1857.69 1880.26 1857.48L1868.99 1856.94C1865.23 1856.78 1861.47 1856.53 1857.7 1856.25C1842.66 1855.29 1827.62 1853.61 1812.59 1851.62C1782.59 1847.34 1752.62 1841.01 1723.42 1831.36L1712.47 1827.72L1701.64 1823.64L1696.24 1821.6C1694.45 1820.88 1692.67 1820.09 1690.9 1819.35L1680.23 1814.78C1676.69 1813.23 1673.24 1811.44 1669.74 1809.77C1666.26 1808.05 1662.71 1806.48 1659.32 1804.54C1652.51 1800.8 1645.6 1797.22 1639 1793.02C1635.69 1790.97 1632.31 1788.99 1629.05 1786.87L1619.36 1780.24L1614.53 1776.93C1612.96 1775.77 1611.41 1774.57 1609.85 1773.38L1600.53 1766.23C1598.95 1765.08 1597.49 1763.76 1596 1762.49L1591.53 1758.66L1587.06 1754.82C1585.59 1753.54 1584.05 1752.3 1582.67 1750.91L1574.17 1742.74L1569.94 1738.64C1568.58 1737.23 1567.26 1735.77 1565.93 1734.33L1557.94 1725.67L1555.95 1723.5L1554.08 1721.23L1550.34 1716.68L1542.87 1707.57L1535.83 1698.14C1526.66 1685.43 1518.3 1672.19 1510.74 1658.55C1495.59 1631.27 1483.62 1602.34 1474.87 1572.43C1466.14 1542.52 1460.39 1511.63 1458.6 1480.23C1457.68 1464.54 1457.68 1448.75 1458.72 1432.95C1459.06 1429.01 1459.29 1425.04 1459.69 1421.1L1461.07 1409.26L1462.92 1397.45C1463.59 1393.52 1464.44 1389.6 1465.21 1385.69C1471.88 1354.4 1483.16 1323.76 1500.08 1295.64C1508.6 1281.54 1518.86 1267.92 1530.68 1255.84C1542.55 1243.83 1555.74 1233.45 1569.21 1224.52C1582.7 1215.57 1596.51 1208.01 1610.28 1201.1C1624.06 1194.2 1637.83 1187.94 1651.54 1181.92C1665.28 1175.91 1678.96 1170.2 1692.62 1164.55C1706.29 1158.87 1719.88 1153.32 1733.48 1147.79C1787.85 1125.67 1841.61 1103.06 1895.04 1079.37C1948.75 1055.45 2002.51 1031.85 2055.7 1007.47C2082.3 995.282 2108.78 982.951 2134.94 970.207C2161.09 957.464 2186.96 944.308 2212.09 930.344C2237.19 916.364 2261.71 901.56 2283.88 884.997C2294.93 876.707 2305.39 867.958 2314.39 858.607C2323.36 849.287 2331 839.349 2335.39 829.379C2337.63 824.402 2339.1 819.473 2339.7 814.591C2340.39 809.709 2340.15 804.843 2339.18 799.692C2337.22 789.405 2332 778.484 2324.76 768.261C2317.55 757.99 2308.45 748.337 2298.45 739.461C2288.43 730.569 2277.41 722.47 2265.84 715.179C2242.65 700.628 2217.17 689.042 2190.86 681.719C2177.72 678.058 2164.35 675.458 2151.09 674.396C2137.84 673.334 2124.68 673.826 2112.4 676.473C2100.07 679.088 2089 683.97 2079.54 691.419C2069.97 698.806 2062.03 709.092 2053.66 721.012C2049.43 726.955 2045.07 733.295 2039.82 739.651C2037.25 742.821 2034.32 745.991 2031.21 749.035C2028.06 752.078 2024.57 754.963 2020.85 757.594C2013.29 762.761 2004.57 766.66 1995.84 768.594C1987.12 770.575 1978.29 771.161 1969.7 770.543C1961.11 769.941 1952.8 768.213 1944.96 765.661C1937.1 763.141 1929.63 759.892 1922.53 756.167C1915.4 752.474 1908.74 748.179 1902.34 743.63C1895.92 739.097 1889.86 734.151 1884.09 728.968C1878.29 723.817 1872.81 718.365 1867.59 712.69C1862.33 707.063 1857.42 701.136 1852.71 695.097C1843.28 682.987 1834.93 670.085 1827.7 656.549C1824.1 649.765 1820.85 642.791 1817.85 635.706L1815.71 630.333L1815.18 628.97L1814.64 627.464L1813.69 624.643C1812.48 620.918 1811.42 617.225 1810.44 613.516C1806.55 598.68 1803.99 583.654 1802.65 568.486C1799.91 538.18 1802.35 507.225 1810.94 477.823C1815.29 463.146 1821.17 448.928 1828.54 435.503C1835.91 422.062 1845.01 409.446 1855.4 398.24C1865.75 386.97 1877.4 377.254 1888.13 367.665C1898.85 358.044 1908.34 348.09 1913.86 336.06C1919.47 324.14 1921.61 310.303 1921.13 296.577C1920.66 282.851 1917.96 269.014 1912.78 256.159C1907.69 243.289 1900.54 231.243 1891.48 220.94C1882.51 210.527 1871.33 202.3 1859.16 196.357C1846.91 190.492 1833.42 187.243 1819.76 186.434C1806.09 185.61 1792.22 187.179 1779.04 190.872C1765.88 194.597 1753.33 200.541 1742.77 208.545C1737.49 212.524 1732.8 217.12 1729.01 222.129C1725.19 227.106 1722.29 232.669 1721.15 237.916C1720.46 240.547 1720.34 243.336 1720.34 246.332C1720.42 247.885 1720.42 249.391 1720.63 251.087L1720.87 253.576L1721.18 256.175C1722.06 263.165 1723.18 270.836 1723.74 278.539C1724.29 286.243 1724.59 294.057 1724.32 301.792C1724.31 305.675 1723.96 309.511 1723.75 313.362C1723.64 315.328 1723.47 317.119 1723.32 318.989L1722.8 324.632C1721.33 339.768 1718.79 355.016 1714.78 370.042L1714.04 372.864L1713.2 375.669L1711.5 381.28L1709.57 386.843L1708.6 389.633L1707.51 392.391L1705.3 397.891C1704.53 399.714 1703.65 401.505 1702.83 403.328C1701.25 406.973 1699.28 410.476 1697.41 414.026C1696.51 415.817 1695.38 417.513 1694.35 419.241C1693.29 420.953 1692.26 422.696 1691.16 424.408L1687.65 429.401C1686.47 431.065 1685.3 432.729 1684 434.314C1678.94 440.718 1673.41 446.646 1667.56 452.146C1655.82 463.13 1642.71 472.371 1628.73 480.106C1614.69 487.729 1599.76 493.848 1584.02 497.858C1568.29 501.852 1551.79 503.881 1535.02 502.898C1526.66 502.407 1518.24 501.297 1509.97 499.237C1501.69 497.176 1493.56 494.323 1485.76 490.709C1470.12 483.529 1456 472.894 1444.44 460.309C1432.89 447.692 1423.87 433.237 1417.05 418.163C1410.22 403.074 1405.55 387.319 1402.63 371.326C1401.17 363.322 1400.16 355.254 1399.59 347.091C1399.32 343.018 1399.14 338.913 1399.11 334.792C1399.06 330.671 1399.14 326.518 1399.51 322.286C1399.87 318.07 1399.97 313.885 1400.77 309.606C1401.46 305.342 1402.03 301.078 1403.2 296.83L1404.78 290.459C1405.42 288.366 1406.15 286.306 1406.83 284.23C1408.13 280.013 1409.89 276.099 1411.57 272.12C1412.38 270.091 1413.36 268.284 1414.29 266.382C1415.23 264.528 1416.16 262.594 1417.13 260.787L1420.08 255.509L1421.57 252.878L1423.06 250.39L1426.04 245.429L1428.94 240.689L1434.55 231.48C1441.79 219.466 1447.8 207.911 1452.54 195.548C1457.26 183.233 1460.83 170.267 1463.65 157.064C1466.3 143.924 1467.69 130.911 1467.73 117.835C1467.76 104.727 1466.35 91.5396 1464.32 77.116C1462.34 62.7558 1460.1 47.1592 1459.51 31.0872C1458.85 14.9993 1459.86 -1.21534 1462.3 -17.224L1464.43 -29.1433C1465.3 -33.0741 1466.27 -36.9733 1467.22 -40.8724C1468.07 -44.8032 1469.39 -48.5914 1470.51 -52.4271L1472.27 -58.1649C1472.88 -60.0669 1473.61 -61.9213 1474.27 -63.7917C1479.49 -78.8651 1486.17 -93.2412 1493.59 -107.063L1496.4 -112.23L1497.81 -114.813L1499.31 -117.333L1505.35 -127.382C1507.43 -130.679 1509.62 -133.897 1511.74 -137.162C1512.82 -138.779 1513.87 -140.427 1514.97 -142.012L1518.37 -146.735C1520.65 -149.858 1522.82 -153.091 1525.21 -156.119L1532.33 -165.264C1534.72 -168.292 1537.26 -171.192 1539.72 -174.172L1543.43 -178.594L1547.26 -182.89C1557.39 -194.46 1568.23 -205.302 1579.28 -215.826L1587.68 -223.609C1590.5 -226.176 1593.4 -228.649 1596.25 -231.169L1600.55 -234.925L1604.94 -238.571L1613.74 -245.83C1625.66 -255.261 1637.81 -264.359 1650.3 -272.95C1675.31 -290.068 1701.36 -305.633 1728.52 -319.026C1742.11 -325.731 1755.88 -332.055 1769.99 -337.682C1784.08 -343.34 1798.39 -348.539 1813.02 -352.914C1827.62 -357.32 1842.47 -360.982 1857.45 -363.866C1872.43 -366.751 1887.5 -368.875 1902.46 -370.381C1917.43 -371.902 1932.25 -372.837 1946.67 -374.026C1961.09 -375.215 1975.09 -376.752 1988.5 -379.637C2001.91 -382.49 2014.7 -386.912 2026.87 -393.046C2038.96 -399.275 2050.57 -406.979 2061.38 -415.855C2082.96 -433.607 2101.21 -455.623 2115.69 -480.175C2130.24 -504.711 2141.18 -531.608 2149.46 -559.393C2157.7 -587.21 2163.29 -615.963 2167.14 -645L2172.2 -644.556L2172.1 -644.509Z" fill="#EFEFEB"/>
<path d="M2144.68 -378.102C2150.31 -354.374 2153.07 -326.811 2139.71 -304.826C2126.52 -283.064 2103.97 -278.975 2080.92 -280.861C2063.39 -282.256 2046.67 -285.172 2029.52 -286.599C2005.95 -288.485 1980.98 -288.089 1958.54 -281.004C1943.75 -276.169 1932.2 -267.563 1920.06 -257.387C1907.41 -246.72 1894.25 -235.022 1880.72 -223.896C1827.41 -179.119 1766.09 -143.742 1706.3 -109.22C1693.02 -101.073 1679.39 -92.2604 1668.45 -81.9419C1663.84 -77.6149 1659.69 -72.6696 1656.82 -67.4549C1652.27 -59.1336 1653.5 -51.8108 1654.09 -42.3008C1657.72 4.94848 1653.47 37.362 1634.93 80.9498C1624.59 105.771 1610.99 129.927 1596.54 152.101C1578.5 180.124 1558.26 206.15 1549.1 237.549C1541.29 264.288 1540.75 304.421 1550.81 330.463C1555.15 341.78 1561.92 351.607 1571.61 358.676C1583.78 367.298 1599.11 371.752 1614.09 371.277C1623.12 371.023 1633.47 368.249 1639.46 361.212C1643.85 355.997 1644.11 349.308 1644.09 342.255C1643.61 325.644 1641.27 307.924 1640.65 290.996C1639.11 238.801 1633.41 180.584 1665.65 135.728C1676.12 121.32 1688.9 109.781 1699.69 96.2452C1710.2 83.4066 1718.97 69.2842 1726.7 54.6545C1734.26 40.0724 1740.57 25.3 1743.98 9.2914C1744.79 5.86777 1745.85 0.0349543 1746.69 -3.40452C1758.13 -53.6494 1812.51 -89.5976 1859.07 -103.641C1910.91 -119.602 1970.62 -118.587 2018.87 -91.5471C2072.11 -59.6725 2093.79 3.93406 2103.85 61.6285C2118.86 143.764 2101.14 227.342 2066.54 302.249C2048.32 342.461 2025.51 380.692 2002.19 417.844C1988.69 439.496 1975.01 460.323 1963.15 482.307C1957.1 494.305 1950.62 506.003 1949.49 518.715C1949.43 520.521 1949.6 521.583 1949.73 522.154C1949.85 522.709 1949.97 523.057 1950.66 523.787C1965.12 536.736 2005.6 530.887 2024.68 526.418C2062.69 517.399 2099.91 500.82 2130.32 476.03C2145.35 463.556 2158.38 448.831 2169.44 432.728C2181.12 415.673 2190.02 398.063 2199.81 378.774C2212.89 353.398 2226.65 325.184 2253.89 311.189C2341.35 268.615 2442.95 407.875 2486.48 469.833L2482.5 472.971C2470.96 460.228 2459.36 447.595 2447.41 435.264C2412.01 399.284 2340.67 327.942 2287.21 333.268C2255.59 337.04 2245.79 367.615 2233.38 394.592C2220.16 426.039 2204.06 459.578 2181.39 486.206C2144.34 530.349 2091.7 559.227 2036.63 574.269C2006.15 581.988 1974.58 586.854 1943.13 577.835C1915.63 569.958 1895.82 547.197 1896.5 517.938C1896.82 477.029 1935.15 423.725 1955.93 388.934C2008.04 306.291 2058.92 216.659 2059.79 116.93C2060.06 62.5162 2045.61 -20.7604 1998.69 -53.5226C1955.02 -81.3396 1893.92 -81.2287 1845.72 -63.2229C1815.87 -52.112 1780.39 -28.8757 1771.16 3.04644C1770.23 6.35912 1768.59 12.0176 1767.67 15.4096C1761.49 37.2827 1750.49 57.4758 1738.37 76.4326C1731.04 87.6545 1723.06 98.5118 1714.12 108.481C1701.67 123.079 1686.43 135.11 1675.9 150.738C1663.41 169.378 1657.77 191.679 1655.71 213.869C1654.3 230.639 1654.6 247.677 1655.04 264.605C1655.53 281.422 1656.25 298.889 1658.12 315.627C1660.57 342.588 1667.31 369.755 1637.13 384.274C1612.31 395.21 1582.35 390.154 1559.72 376.428C1546.1 367.821 1535.39 354.476 1528.73 340.131C1514.04 308.383 1511.15 263.734 1518.05 229.973C1527.31 185.275 1554.79 148.915 1574.67 109.686C1584 91.4902 1592.12 72.8663 1598.57 53.4974C1603.56 38.836 1607.56 23.9845 1608.81 8.7525C1609.73 -3.04 1609.84 -14.88 1609.27 -26.7359C1608.79 -36.9751 1607.52 -46.8814 1607.9 -57.7863C1608.98 -90.6436 1635.15 -115.893 1660.45 -132.789C1682.46 -147.799 1706.67 -159.909 1729.35 -172.43C1759.07 -188.613 1788.23 -205.605 1816.48 -224.181C1845.18 -242.741 1871.62 -263.6 1898.9 -284.364C1913.72 -295.411 1931.34 -306.348 1949.92 -310.754C1985.76 -319.504 2023.72 -314.21 2058.55 -306.221C2066.97 -304.367 2075.24 -302.433 2083.25 -301.118C2099.1 -298.249 2115.2 -298.154 2126.2 -310.802C2136.11 -322.055 2139.31 -337.034 2140.2 -351.949C2140.72 -360.27 2140.36 -368.75 2139.66 -377.262L2144.67 -378.086L2144.68 -378.102Z" fill="#EFEFEB"/>
<path d="M2232.45 1185.94C2180.11 1210.07 2127.04 1230.94 2073.98 1252.64C2011.56 1278.11 1938.81 1308.64 1875.6 1330.29C1832.25 1345.73 1788.07 1361.47 1748.24 1384.75C1727.51 1397.22 1707 1411.27 1691.13 1429.67C1687.06 1434.74 1683.1 1440.08 1680.32 1445.9C1674.49 1457.25 1673.01 1470.28 1673.52 1482.91C1674.63 1509.05 1684.81 1534.19 1698.45 1556.26C1725.19 1599.54 1773.19 1645.23 1826.71 1645.17C1845.65 1645.06 1863.79 1637.69 1880.49 1629.18C1899.32 1619.63 1916.92 1608.9 1936.44 1598.93C1976.86 1577.73 2022.53 1563.25 2068.46 1561.67C2128.52 1559.04 2188.79 1574.97 2239.59 1605.69L2237.66 1610.38C2210.05 1603.77 2182.2 1598.78 2154.11 1597.14C2085.53 1592.37 2019.7 1608.79 1961.68 1644.87C1929.37 1663.74 1897.2 1686.85 1858.84 1695.18C1815.63 1704.7 1772.4 1690.64 1737.71 1665.03C1686.52 1627.23 1651.9 1568.94 1648.32 1505.45C1647.5 1483.83 1650.51 1461.15 1660.79 1441.73C1682.08 1404.83 1724.58 1382.23 1758.34 1359.66C1786.03 1342.54 1813.75 1325.09 1841.85 1308.59C1885.2 1282.55 1931.1 1259.84 1978.65 1242.65C2032.91 1222.52 2088.54 1206.06 2145.22 1194.26C2166.52 1189.97 2187.91 1186.09 2209.49 1183.41C2216.69 1182.5 2223.9 1181.66 2231.16 1181.04L2232.48 1185.94H2232.45Z" fill="#EFEFEB"/>
<path d="M-123.93 71.0289C-212.453 118.383 -298.266 204.577 -300.58 310.258C-301.673 387.984 -245.444 450.464 -186.415 494.377C-179.029 499.874 -170.561 506.176 -162.941 511.053C-139.166 527.08 -113.671 537.359 -86.1855 546.083C90.6668 597.135 300.189 719.163 345.557 911.015C357.767 965.21 362.738 1031.44 341.483 1084.45C331.027 1109.99 310.267 1132.81 280.881 1135.32C264.299 1136.8 246.716 1130.53 232.37 1123.75C213.838 1115.02 196.152 1104.93 178.093 1096.37C148.847 1082.23 118.216 1071.23 86.4514 1064.45C25.8833 1051.51 -46.7451 1040.68 -103.842 1069.65L-107.968 1071.84L-111.937 1074.26L-113.928 1075.48C-119.714 1079.37 -125.221 1083.63 -130.204 1088.52C-132.158 1090.1 -134.887 1093.33 -136.659 1095.23C-138.515 1096.9 -140.94 1100.47 -142.585 1102.48L-144.02 1104.33C-144.513 1104.93 -144.982 1105.57 -145.393 1106.24C-159.982 1127.31 -168.362 1152.08 -172.486 1177.32C-182.205 1238.86 -169.786 1302.72 -144.76 1359.3C-127.298 1397.97 -102.713 1433.44 -71.208 1461.96C-16.3544 1511.79 74.3082 1560.84 148.939 1536.52C166.708 1530.53 182.343 1519.44 193.877 1504.65C218.359 1473.35 227.471 1433.38 249.692 1399.37C253.129 1393.9 257.609 1387.94 261.722 1382.97C294.348 1343.66 345.56 1332.23 394.375 1338.78C431.892 1343.75 469.522 1358.22 499.094 1382.69C550.15 1426.28 545.763 1478.25 500.86 1524.49C490.563 1535.34 479.481 1544.89 467.979 1554.03C403.935 1604.14 330.266 1639.78 265.429 1687.56C251.301 1698.55 229.549 1715.18 223.55 1731.53C223.179 1732.6 223.271 1733.17 223.158 1733.61C223.171 1733.7 223.232 1733.77 223.229 1733.84C223.271 1733.9 223.133 1734.01 223.24 1734.07C223.375 1734.19 223.222 1734.33 223.354 1734.47C223.487 1734.77 223.539 1735.1 224.001 1735.73C224.422 1736.34 225.074 1737.2 226.084 1738.21C231.767 1743.63 241.57 1748.61 250.071 1751.89C285.644 1765.53 324.854 1771.24 362.648 1780.05C387.204 1786.25 421.364 1792.74 433.915 1818.68C443.171 1837.89 435.287 1858.86 419.433 1871.45C410.018 1879.25 397.708 1885.36 387.626 1889.67C367.466 1898.26 346.554 1904.53 325.865 1910.06C245.785 1931.02 162.883 1941.87 80.6071 1945.6C68.0248 1946.4 54.732 1946.88 42.7152 1948.48C37.1552 1949.22 32.0328 1950.21 28.6719 1951.37C24.145 1952.95 22.0378 1954.28 20.8052 1958.74C20.3258 1960.67 20.1258 1963.62 20.8643 1967.7C21.6716 1972.13 23.2407 1977.11 25.0484 1981.6C32.1353 1999.01 41.7805 2014.71 51.3921 2032.21C65.8733 2058.53 81.439 2088.6 81 2120.56C80.8772 2149.79 65.1156 2176.74 40.1208 2191.55C20.0514 2203.68 -1.79239 2208.35 -23.5826 2213.85C-52.1228 2220.92 -80.0632 2227.83 -102.684 2246.1C-116.921 2257.5 -127.947 2272.77 -134.405 2289.88C-142.682 2312.48 -143.997 2338.53 -144.424 2363.23C-144.727 2382.86 -144.215 2403.03 -143.273 2422.72C-138.115 2529.37 -117.242 2635.1 -86.633 2737.3L-80.8548 2756.62L-86.3688 2758.62C-127.964 2659.04 -158.231 2553.86 -172.133 2445.49C-173.39 2435.9 -174.629 2424.54 -175.601 2414.95C-179.843 2359.83 -188.026 2294.64 -156.567 2245.38C-137.625 2214.83 -108.684 2194.59 -75.8776 2182.12C-50.291 2172.1 -24.401 2167.28 0.333791 2157.41C11.1822 2152.95 21.1318 2147.28 26.3575 2137.32C38.5717 2113.85 17.4929 2080.93 4.91407 2058.82C-9.52219 2034.05 -27.8517 2007.78 -34.0628 1978.37C-41.7197 1944.11 -25.2002 1909.35 9.0541 1897.32C24.3613 1891.75 40.6391 1889.92 56.1685 1888.43C76.4051 1886.63 96.611 1885.39 116.534 1883.52C181.464 1877.5 246.717 1866.37 309.588 1849.54C332.266 1843.08 356.385 1836.36 376.343 1824.87C377.611 1824.13 378.409 1823.48 379.328 1822.75C378.232 1823.64 376.077 1827.73 375.649 1829.89C373.53 1837.42 375.54 1846.76 381.592 1851.73C381.478 1851.67 381.273 1851.52 380.974 1851.37C380.819 1851.25 380.378 1851.07 380.063 1850.89C377.097 1849.41 371.757 1847.53 366.269 1845.94C347.798 1840.62 328.931 1837.07 309.49 1832.75C267.969 1823.08 213.968 1812.72 182.21 1781.07C164.702 1763.57 157.551 1737.51 165.397 1713.73C176.311 1680.8 204.534 1658.88 230.198 1639.69C296.074 1592.55 370.105 1558.84 434.582 1510.85C448.603 1500.15 462.629 1488.42 473.195 1474.63C484.21 1459.91 488.382 1447.88 476.092 1432.33C466.342 1419.7 452.134 1409.9 437.714 1402.57C424.76 1395.96 410.515 1390.99 396.187 1387.8C361.563 1380.08 320.952 1382.56 295.387 1409.77C291.559 1413.62 287.68 1418.42 284.541 1422.86C269.774 1443.6 259.753 1468.46 246.706 1491.58C236.223 1510.46 222.406 1529.96 204.889 1544.04C186.902 1558.54 164.933 1567.94 142.217 1571.59C42.901 1587.16 -72.0856 1508.8 -126.653 1430.22C-188.777 1343.14 -222.407 1189.84 -160.919 1095.55C-105.989 1014.37 6.39465 1022.11 91.7763 1035.99C126.16 1041.41 160.079 1051.29 192.174 1064.64C205.008 1069.88 217.534 1075.64 229.675 1081.08C240.842 1085.93 252.733 1091.53 263.986 1094.14C270.293 1095.59 274.473 1095.84 279.235 1094.53C281.079 1094.03 282.723 1093.14 284.375 1092.21C291.752 1087.26 296.798 1079.47 300.949 1068.22C316.872 1021.72 306.799 951.185 291.41 905.278C274.846 854.815 244.035 809.443 207.306 771.229C142.043 703.827 59.8058 654.054 -26.641 617.688C-77.0216 596.255 -132.643 584.872 -178.802 553.482C-188.793 546.87 -195.798 541.645 -204.918 534.492C-229.483 514.942 -253.089 493.833 -273.54 469.081C-358.057 369.477 -348.773 252.07 -261.584 157.31C-224.196 116.744 -177.163 86.1307 -126.405 65.7109L-123.93 71.0289Z" fill="#F1F2EF"/>
</g>
<defs>
<clipPath id="clip0_527_18">
<rect width="1728" height="2837" fill="white" transform="translate(0.0976562)"/>
</clipPath>
</defs>
</svg>
