<?xml version="1.0" encoding="UTF-8"?><svg xmlns="http://www.w3.org/2000/svg" viewBox="0 0 686.15 1579.15"><defs><style>.d{fill:#efefeb;}</style></defs><g id="a"/><g id="b"><g id="c"><g><path class="d" d="M487.77,.28c-.79,18.61-2.97,37.25-7.02,55.63-2.05,9.18-4.51,18.3-7.65,27.24-3.12,8.94-6.73,17.77-11.15,26.26-4.39,8.49-9.38,16.74-15.18,24.47-5.8,7.72-12.32,14.97-19.49,21.55-7.16,6.57-15.06,12.49-23.7,17.45-8.66,4.92-18.09,8.69-27.66,11.21-9.57,2.57-19.19,3.96-28.52,5.15-9.35,1.18-18.48,2.14-27.45,3.45-8.96,1.3-17.79,2.84-26.49,4.86-8.7,2.01-17.27,4.47-25.72,7.36-16.88,5.8-33.34,13.08-49.18,21.59-15.85,8.49-31.14,18.06-45.69,28.6-7.27,5.28-14.32,10.83-21.2,16.56-6.81,5.81-13.52,11.73-19.85,18-6.32,6.27-12.5,12.68-18.19,19.46l-2.17,2.51-2.07,2.58c-1.37,1.73-2.8,3.42-4.12,5.17l-3.95,5.28c-1.35,1.74-2.53,3.58-3.8,5.36l-1.88,2.69c-.62,.9-1.18,1.83-1.78,2.75-1.17,1.84-2.37,3.66-3.51,5.52l-3.28,5.63-.82,1.41-.75,1.44-1.51,2.87c-3.98,7.66-7.5,15.51-10.16,23.58-.34,1.01-.73,2-1.03,3.01l-.88,3.05c-.56,2.03-1.25,4.04-1.66,6.1l-1.41,6.14-1.05,6.18c-1.18,8.24-1.66,16.6-1.25,24.98,.37,8.4,1.62,16.95,2.98,26.24,1.38,9.24,2.61,19.4,2.58,29.68,.01,10.29-1.1,20.62-3.15,30.49-2.09,9.8-4.81,19.53-8.56,29.05-3.7,9.51-8.65,18.67-13.75,26.9-5.06,8.27-10.13,15.56-13.31,22.52-.76,1.75-1.62,3.48-2.18,5.26l-.95,2.65-.72,2.72c-.57,1.78-.82,3.69-1.18,5.57-.18,.94-.37,1.87-.42,2.87l-.29,2.94c-.78,7.88-.31,16.32,.93,24.48,1.28,8.18,3.42,16.22,6.5,23.71,3.08,7.49,7.15,14.43,12.19,20.33,5.03,5.91,11.03,10.83,17.9,14.32,6.83,3.51,14.41,5.74,22.35,6.51,7.93,.84,16.18,.24,24.31-1.43,8.14-1.67,16.15-4.53,23.76-8.23,7.58-3.76,14.79-8.38,21.2-13.84,6.41-5.5,11.86-11.63,16.22-18.84,1.06-1.82,2.19-3.6,3.12-5.52,.48-.95,.99-1.88,1.46-2.84l1.33-2.93,.66-1.47,.6-1.5,1.21-3.01,1.08-3.07,.54-1.54,.48-1.56c2.65-8.33,4.46-17,5.7-25.87l.45-3.35c.13-1.13,.3-2.3,.4-3.37,.21-2.19,.5-4.39,.6-6.57,.35-4.38,.35-8.74,.19-13.13-.16-4.4-.64-8.77-1.07-13.58l-.15-1.81-.11-1.9c-.09-1.24-.08-2.62-.08-3.95,.09-2.73,.35-5.64,1.16-8.45,.71-2.84,1.92-5.44,3.2-7.88,1.36-2.37,2.83-4.64,4.52-6.68,3.34-4.13,7.21-7.64,11.36-10.6,8.31-5.92,17.6-9.89,27.19-12.35,9.59-2.46,19.55-3.36,29.42-2.56,9.86,.8,19.66,3.37,28.6,7.8,8.9,4.51,16.97,10.68,23.36,18.23,6.44,7.51,11.47,16.11,15.01,25.25,3.57,9.14,5.52,18.88,5.82,28.73,.16,2.46-.04,4.94-.12,7.41l-.04,.93-.11,.93-.22,1.85c-.17,1.23-.25,2.47-.5,3.7-.85,4.92-2.3,9.84-4.46,14.47-2.12,4.65-5.02,8.91-8.22,12.71-3.2,3.83-6.72,7.16-10.21,10.36-7,6.35-13.86,12.21-19.83,18.84-5.97,6.59-11.13,13.81-15.27,21.66-4.15,7.85-7.43,16.17-9.82,24.73-4.76,17.16-5.7,35.29-3.72,53.05,1.01,8.88,2.78,17.69,5.27,26.21,.63,2.12,1.3,4.23,2.02,6.27l.55,1.5,.27,.68,.32,.75,1.31,3.04c1.83,4.02,3.84,7.96,6.04,11.81,8.84,15.35,20.38,29.31,33.85,40.52,3.36,2.8,6.85,5.43,10.46,7.78,3.61,2.36,7.31,4.55,11.12,6.34,7.59,3.6,15.6,6.08,23.3,6.28,3.84,.12,7.6-.33,11.11-1.27,3.52-.93,6.54-2.51,9.36-4.57,5.59-4.17,10.13-11.15,15.2-19.01,2.56-3.92,5.26-8.05,8.45-12.11,3.17-4.05,6.78-8.05,10.97-11.58,4.16-3.54,8.82-6.61,13.72-9.04,4.9-2.47,10.02-4.25,15.16-5.58,10.31-2.63,20.73-3.34,30.86-2.92,10.15,.43,20.07,1.98,29.73,4.3,9.66,2.34,19.06,5.44,28.19,9.17,9.13,3.73,17.98,8.12,26.52,13.16,8.53,5.04,16.74,10.71,24.49,17.19,7.74,6.49,15.01,13.8,21.35,22.34,3.15,4.28,6.09,8.85,8.56,13.88,2.46,5.02,4.55,10.42,5.79,16.28,1.24,5.83,1.69,12.13,.98,18.26-.3,3.07-.93,6.07-1.68,8.99-.82,2.89-1.76,5.74-2.93,8.4-2.28,5.38-5.13,10.26-8.26,14.71-3.13,4.46-6.53,8.52-10.06,12.31-7.08,7.58-14.67,14.08-22.43,20.11-15.55,12-31.78,22.09-48.18,31.6-16.41,9.46-33.03,18.25-49.73,26.73-16.7,8.47-33.49,16.64-50.31,24.65-33.66,15.99-67.4,31.49-101.15,46.89-16.96,7.73-34.01,15.37-51.15,22.72-17.13,7.37-34.33,14.55-51.49,21.65-17.12,7.13-34.32,14.04-50.98,21.32-16.64,7.26-32.94,14.8-46.92,23.89-6.98,4.56-13.32,9.53-18.92,15.1-5.56,5.6-10.4,11.84-14.69,18.77-4.31,6.93-7.97,14.49-11.07,22.22-3.09,7.76-5.55,15.81-7.43,24.06-3.77,16.49-5.03,33.73-4.33,50.96,.69,17.25,3.49,34.52,8.05,51.34,4.52,16.83,10.98,33.17,19.02,48.6,4.03,7.71,8.49,15.18,13.39,22.32l3.75,5.29,3.99,5.1,1.99,2.55,1,1.28,1.07,1.21,4.28,4.86,2.14,2.43,2.28,2.3,4.54,4.62c.74,.79,1.56,1.49,2.36,2.22l2.4,2.18,2.4,2.18c.8,.72,1.58,1.48,2.44,2.14l5.04,4.09c.84,.68,1.67,1.38,2.53,2.04l2.63,1.91,5.26,3.83c1.79,1.24,3.64,2.38,5.45,3.58,3.59,2.46,7.42,4.56,11.19,6.78,1.86,1.15,3.85,2.08,5.78,3.11,1.95,1,3.87,2.05,5.84,3.01l5.97,2.79c1,.46,1.98,.95,2.99,1.38l3.05,1.27,6.11,2.54,6.22,2.3c16.61,6.13,34.03,10.36,51.68,13.59,8.86,1.5,17.77,2.85,26.76,3.74,2.24,.26,4.49,.49,6.75,.67l6.76,.58c4.52,.28,9.04,.64,13.58,.82,18.15,.94,36.41,.77,54.76,.14,4.59-.17,9.19-.35,13.8-.56,2.31-.11,4.63-.2,6.92-.34l6.8-.48,13.61-.96,13.56-1.57c2.26-.27,4.53-.5,6.79-.8l6.75-1.08c4.49-.75,9.01-1.39,13.5-2.22,8.93-1.86,17.92-3.51,26.75-5.85,8.92-2.04,17.65-4.75,26.46-7.28l13.06-4.28c1.09-.36,2.19-.7,3.26-1.09l3.23-1.19,6.46-2.37c34.42-12.76,67.45-29.54,98.61-49.47l1.83,2.62c-3.75,2.75-7.44,5.6-11.27,8.24l-5.71,4.03-5.8,3.9c-3.85,2.64-7.8,5.11-11.74,7.62-3.91,2.57-7.98,4.85-11.97,7.27-16.12,9.44-32.79,18.02-49.95,25.59l-6.45,2.8-3.23,1.4c-1.08,.46-2.18,.87-3.27,1.3l-13.12,5.14c-8.87,3.08-17.7,6.34-26.75,8.93-4.51,1.33-8.98,2.84-13.56,3.93l-13.69,3.52c-4.59,1.09-9.22,1.98-13.83,2.98l-6.93,1.46c-2.32,.43-4.65,.78-6.98,1.17l-13.98,2.29-14.08,1.64-7.05,.81c-2.33,.25-4.63,.43-6.95,.65-4.64,.42-9.29,.82-13.96,1.2-9.34,.75-18.72,1.31-28.13,1.7-9.41,.4-18.85,.58-28.32,.48-4.73,0-9.47-.17-14.21-.3l-7.11-.34c-2.37-.1-4.74-.26-7.12-.44-9.49-.6-18.98-1.66-28.46-2.92-18.93-2.7-37.84-6.69-56.26-12.78l-6.91-2.3-6.83-2.57-3.41-1.29c-1.13-.45-2.25-.95-3.37-1.42l-6.73-2.88c-2.23-.98-4.41-2.11-6.62-3.16-2.19-1.09-4.43-2.08-6.57-3.3-4.3-2.36-8.66-4.62-12.82-7.27-2.09-1.29-4.22-2.54-6.28-3.88l-6.11-4.18-3.05-2.09c-.99-.73-1.97-1.49-2.95-2.24l-5.88-4.51c-1-.73-1.92-1.56-2.86-2.36l-2.82-2.42-2.82-2.42c-.93-.81-1.9-1.59-2.77-2.47l-5.36-5.15-2.67-2.59c-.86-.89-1.69-1.81-2.53-2.72l-5.04-5.46-1.26-1.37-1.18-1.43-2.36-2.87-4.71-5.75-4.44-5.95c-5.79-8.02-11.06-16.37-15.83-24.98-9.56-17.21-17.11-35.46-22.63-54.33-5.51-18.87-9.14-38.36-10.27-58.17-.58-9.9-.58-19.86,.08-29.83,.21-2.49,.36-4.99,.61-7.48l.87-7.47,1.17-7.45c.42-2.48,.96-4.95,1.44-7.42,4.21-19.74,11.33-39.07,22-56.81,5.38-8.9,11.85-17.49,19.31-25.11,7.49-7.58,15.81-14.13,24.31-19.76,8.51-5.65,17.22-10.42,25.91-14.78,8.69-4.35,17.38-8.3,26.03-12.1,8.67-3.79,17.3-7.39,25.92-10.96,8.62-3.58,17.2-7.08,25.78-10.57,34.3-13.96,68.22-28.22,101.93-43.17,33.88-15.09,67.8-29.98,101.36-45.36,16.78-7.69,33.49-15.47,49.99-23.51,16.5-8.04,32.82-16.34,48.68-25.15,15.83-8.82,31.3-18.16,45.29-28.61,6.97-5.23,13.57-10.75,19.25-16.65,5.66-5.88,10.48-12.15,13.25-18.44,1.41-3.14,2.34-6.25,2.72-9.33,.43-3.08,.28-6.15-.33-9.4-1.24-6.49-4.53-13.38-9.1-19.83-4.55-6.48-10.29-12.57-16.6-18.17-6.32-5.61-13.27-10.72-20.57-15.32-14.63-9.18-30.71-16.49-47.31-21.11-8.29-2.31-16.72-3.95-25.09-4.62-8.36-.67-16.66-.36-24.41,1.31-7.78,1.65-14.76,4.73-20.73,9.43-6.04,4.66-11.05,11.15-16.33,18.67-2.67,3.75-5.42,7.75-8.73,11.76-1.62,2-3.47,4-5.43,5.92-1.99,1.92-4.19,3.74-6.54,5.4-4.77,3.26-10.27,5.72-15.78,6.94-5.5,1.25-11.07,1.62-16.49,1.23-5.42-.38-10.66-1.47-15.61-3.08-4.96-1.59-9.67-3.64-14.15-5.99-4.5-2.33-8.7-5.04-12.74-7.91-4.05-2.86-7.87-5.98-11.51-9.25-3.66-3.25-7.12-6.69-10.41-10.27-3.32-3.55-6.42-7.29-9.39-11.1-5.95-7.64-11.22-15.78-15.78-24.32-2.27-4.28-4.32-8.68-6.21-13.15l-1.35-3.39-.34-.86-.34-.95-.6-1.78c-.76-2.35-1.43-4.68-2.05-7.02-2.45-9.36-4.07-18.84-4.91-28.41-1.73-19.12-.19-38.65,5.23-57.2,2.74-9.26,6.45-18.23,11.1-26.7,4.65-8.48,10.39-16.44,16.95-23.51,6.53-7.11,13.88-13.24,20.65-19.29,6.76-6.07,12.75-12.35,16.23-19.94,3.54-7.52,4.89-16.25,4.59-24.91-.3-8.66-2-17.39-5.27-25.5-3.21-8.12-7.72-15.72-13.44-22.22-5.66-6.57-12.71-11.76-20.39-15.51-7.73-3.7-16.24-5.75-24.86-6.26-8.62-.52-17.37,.47-25.69,2.8-8.3,2.35-16.22,6.1-22.88,11.15-3.33,2.51-6.29,5.41-8.68,8.57-2.41,3.14-4.24,6.65-4.96,9.96-.44,1.66-.51,3.42-.51,5.31,.05,.98,.05,1.93,.18,3l.15,1.57,.2,1.64c.55,4.41,1.26,9.25,1.61,14.11,.35,4.86,.54,9.79,.37,14.67-.01,2.45-.23,4.87-.36,7.3-.07,1.24-.18,2.37-.27,3.55l-.33,3.56c-.93,9.55-2.53,19.17-5.06,28.65l-.47,1.78-.53,1.77-1.07,3.54-1.22,3.51-.61,1.76-.69,1.74-1.39,3.47c-.49,1.15-1.04,2.28-1.56,3.43-1,2.3-2.24,4.51-3.42,6.75-.57,1.13-1.28,2.2-1.93,3.29-.67,1.08-1.32,2.18-2.01,3.26l-2.22,3.15c-.74,1.05-1.48,2.1-2.3,3.1-3.19,4.04-6.68,7.78-10.37,11.25-7.41,6.93-15.68,12.76-24.5,17.64-8.86,4.81-18.28,8.67-28.21,11.2-9.92,2.52-20.33,3.8-30.91,3.18-5.28-.31-10.59-1.01-15.81-2.31-5.22-1.3-10.35-3.1-15.27-5.38-9.87-4.53-18.78-11.24-26.07-19.18-7.29-7.96-12.98-17.08-17.28-26.59-4.31-9.52-7.26-19.46-9.1-29.55-.92-5.05-1.56-10.14-1.92-15.29-.17-2.57-.28-5.16-.3-7.76-.03-2.6,.02-5.22,.25-7.89,.23-2.66,.29-5.3,.8-8,.43-2.69,.79-5.38,1.53-8.06l1-4.02c.4-1.32,.86-2.62,1.29-3.93,.82-2.66,1.93-5.13,2.99-7.64,.51-1.28,1.13-2.42,1.72-3.62,.59-1.17,1.18-2.39,1.79-3.53l1.86-3.33,.94-1.66,.94-1.57,1.88-3.13,1.83-2.99,3.54-5.81c4.57-7.58,8.36-14.87,11.35-22.67,2.98-7.77,5.23-15.95,7.01-24.28,1.67-8.29,2.55-16.5,2.57-24.75,.02-8.27-.87-16.59-2.15-25.69-1.25-9.06-2.66-18.9-3.03-29.04-.42-10.15,.22-20.38,1.76-30.48l1.34-7.52c.55-2.48,1.16-4.94,1.76-7.4,.54-2.48,1.37-4.87,2.08-7.29l1.11-3.62c.38-1.2,.84-2.37,1.26-3.55,3.29-9.51,7.51-18.58,12.19-27.3l1.77-3.26,.89-1.63,.95-1.59,3.81-6.34c1.31-2.08,2.69-4.11,4.03-6.17,.68-1.02,1.34-2.06,2.04-3.06l2.14-2.98c1.44-1.97,2.81-4.01,4.32-5.92l4.49-5.77c1.51-1.91,3.11-3.74,4.66-5.62l2.34-2.79,2.42-2.71c6.39-7.3,13.23-14.14,20.2-20.78l5.3-4.91c1.78-1.62,3.61-3.18,5.41-4.77l2.71-2.37,2.77-2.3,5.55-4.58c7.52-5.95,15.19-11.69,23.07-17.11,15.78-10.8,32.21-20.62,49.35-29.07,8.57-4.23,17.26-8.22,26.16-11.77,8.89-3.57,17.92-6.85,27.15-9.61,9.21-2.78,18.58-5.09,28.03-6.91,9.45-1.82,18.96-3.16,28.4-4.11,9.44-.96,18.79-1.55,27.89-2.3,9.1-.75,17.93-1.72,26.39-3.54,8.46-1.8,16.53-4.59,24.21-8.46,7.63-3.93,14.95-8.79,21.77-14.39,13.62-11.2,25.13-25.09,34.27-40.58,9.18-15.48,16.08-32.45,21.3-49.98,5.2-17.55,8.73-35.69,11.16-54.01l3.19,.28Z"/><path class="d" d="M470.47,168.36c3.55,14.97,5.29,32.36-3.14,46.23-8.32,13.73-22.55,16.31-37.09,15.12-11.06-.88-21.61-2.72-32.43-3.62-14.87-1.19-30.62-.94-44.78,3.53-9.33,3.05-16.62,8.48-24.28,14.9-7.98,6.73-16.28,14.11-24.82,21.13-33.63,28.25-72.32,50.57-110.04,72.35-8.38,5.14-16.98,10.7-23.88,17.21-2.91,2.73-5.53,5.85-7.34,9.14-2.87,5.25-2.09,9.87-1.72,15.87,2.29,29.81-.39,50.26-12.09,77.76-6.52,15.66-15.1,30.9-24.22,44.89-11.38,17.68-24.15,34.1-29.93,53.91-4.93,16.87-5.27,42.19,1.08,58.62,2.74,7.14,7.01,13.34,13.12,17.8,7.68,5.44,17.35,8.25,26.8,7.95,5.7-.16,12.23-1.91,16.01-6.35,2.77-3.29,2.93-7.51,2.92-11.96-.3-10.48-1.78-21.66-2.17-32.34-.97-32.93-4.57-69.66,15.77-97.96,6.61-9.09,14.67-16.37,21.48-24.91,6.63-8.1,12.16-17.01,17.04-26.24,4.77-9.2,8.75-18.52,10.9-28.62,.51-2.16,1.18-5.84,1.71-8.01,7.22-31.7,41.53-54.38,70.9-63.24,32.71-10.07,70.38-9.43,100.82,7.63,33.59,20.11,47.27,60.24,53.62,96.64,9.47,51.82-1.71,104.55-23.54,151.81-11.5,25.37-25.89,49.49-40.6,72.93-8.52,13.66-17.15,26.8-24.63,40.67-3.82,7.57-7.91,14.95-8.62,22.97-.04,1.14,.07,1.81,.15,2.17,.08,.35,.15,.57,.59,1.03,9.12,8.17,34.66,4.48,46.7,1.66,23.98-5.69,47.46-16.15,66.65-31.79,9.48-7.87,17.7-17.16,24.68-27.32,7.37-10.76,12.98-21.87,19.16-34.04,8.25-16.01,16.93-33.81,34.12-42.64,55.18-26.86,119.28,61,146.74,100.09l-2.51,1.98c-7.28-8.04-14.6-16.01-22.14-23.79-22.33-22.7-67.34-67.71-101.07-64.35-19.95,2.38-26.13,21.67-33.96,38.69-8.34,19.84-18.5,41-32.8,57.8-23.38,27.85-56.59,46.07-91.33,55.56-19.23,4.87-39.15,7.94-58.99,2.25-17.35-4.97-29.85-19.33-29.42-37.79,.2-25.81,24.38-59.44,37.49-81.39,32.88-52.14,64.98-108.69,65.53-171.61,.17-34.33-8.95-86.87-38.55-107.54-27.55-17.55-66.1-17.48-96.51-6.12-18.83,7.01-41.22,21.67-47.04,41.81-.59,2.09-1.62,5.66-2.2,7.8-3.9,13.8-10.84,26.54-18.49,38.5-4.62,7.08-9.66,13.93-15.3,20.22-7.85,9.21-17.47,16.8-24.11,26.66-7.88,11.76-11.44,25.83-12.74,39.83-.89,10.58-.7,21.33-.42,32.01,.31,10.61,.76,21.63,1.94,32.19,1.55,17.01,5.8,34.15-13.24,43.31-15.66,6.9-34.56,3.71-48.84-4.95-8.59-5.43-15.35-13.85-19.55-22.9-9.27-20.03-11.09-48.2-6.74-69.5,5.84-28.2,23.18-51.14,35.72-75.89,5.89-11.48,11.01-23.23,15.08-35.45,3.15-9.25,5.67-18.62,6.46-28.23,.58-7.44,.65-14.91,.29-22.39-.3-6.46-1.1-12.71-.86-19.59,.68-20.73,17.19-36.66,33.15-47.32,13.89-9.47,29.16-17.11,43.47-25.01,18.75-10.21,37.15-20.93,54.97-32.65,18.11-11.71,34.79-24.87,52-37.97,9.35-6.97,20.47-13.87,32.19-16.65,22.61-5.52,46.56-2.18,68.54,2.86,5.31,1.17,10.53,2.39,15.58,3.22,10,1.81,20.16,1.87,27.1-6.11,6.25-7.1,8.27-16.55,8.83-25.96,.33-5.25,.1-10.6-.34-15.97l3.16-.52h0Z"/><path class="d" d="M525.84,1155.13c-33.02,15.22-66.5,28.39-99.98,42.08-39.38,16.07-85.28,35.33-125.16,48.99-27.35,9.74-55.22,19.67-80.35,34.36-13.08,7.87-26.02,16.73-36.03,28.34-2.57,3.2-5.07,6.57-6.82,10.24-3.68,7.16-4.61,15.38-4.29,23.35,.7,16.49,7.12,32.35,15.73,46.28,16.87,27.3,47.15,56.13,80.92,56.09,11.95-.07,23.39-4.72,33.93-10.09,11.88-6.02,22.98-12.79,35.3-19.08,25.5-13.38,54.31-22.51,83.29-23.51,37.89-1.66,75.92,8.39,107.97,27.77l-1.22,2.96c-17.42-4.17-34.99-7.32-52.71-8.35-43.27-3.01-84.8,7.35-121.41,30.11-20.38,11.91-40.68,26.49-64.88,31.74-27.26,6.01-54.54-2.86-76.42-19.02-32.3-23.85-54.14-60.62-56.4-100.68-.52-13.64,1.38-27.95,7.87-40.2,13.43-23.28,40.24-37.54,61.54-51.78,17.47-10.8,34.96-21.81,52.69-32.22,27.35-16.43,56.31-30.76,86.31-41.6,34.23-12.7,69.33-23.09,105.09-30.53,13.44-2.71,26.93-5.16,40.55-6.85,4.54-.57,9.09-1.1,13.67-1.49l.83,3.09h0Z"/></g></g></g></svg>