<?xml version="1.0" encoding="UTF-8"?><svg xmlns="http://www.w3.org/2000/svg" viewBox="0 0 844.5 2209.66"><defs><style>.d{fill:#f1f2ef;}</style></defs><g id="a"/><g id="b"><g id="c"><g><path class="d" d="M31.21,0c21.18,45.82,43.43,91.1,67.54,135.28,3.03,5.51,5.97,11.08,9.08,16.54l9.34,16.39c1.57,2.72,3.07,5.48,4.68,8.18l4.81,8.1c3.22,5.39,6.38,10.82,9.65,16.18,13.17,21.38,26.74,42.49,41.06,63.03,14.42,20.47,29.41,40.49,45.33,59.68,15.89,19.21,32.63,37.65,50.5,54.82,17.84,17.17,36.74,33.15,56.82,47.26,20.03,14.17,41.33,26.31,63.61,35.87,11.15,4.76,22.59,8.73,34.18,12.05l4.36,1.21,2.18,.61,2.2,.52c2.94,.68,5.85,1.41,8.8,2.07,5.92,1.26,12.04,2.41,18.23,3.55,24.8,4.57,50.42,9.41,75.45,17.9,6.26,2.13,12.49,4.42,18.64,7.05,6.17,2.55,12.24,5.48,18.23,8.62,11.92,6.39,23.47,13.97,33.84,23.24,1.28,1.17,2.63,2.26,3.86,3.51l3.73,3.67c1.27,1.19,2.39,2.54,3.59,3.82,1.16,1.31,2.39,2.55,3.49,3.92,2.2,2.73,4.48,5.39,6.46,8.3,1.01,1.43,2.06,2.84,3.04,4.3l2.81,4.46,1.4,2.23,1.28,2.31,2.54,4.63,2.29,4.78,1.13,2.4,1,2.46c2.8,6.51,4.85,13.33,6.52,20.16,3.26,13.72,4.26,27.61,4.27,40.82,.06,13.27-.76,25.95-.95,38.12-.08,6.07-.06,12.04,.29,17.84,.36,5.8,.99,11.47,1.98,16.99,1.07,5.5,2.48,10.86,4.29,16.07,.48,1.29,1,2.57,1.49,3.86,.25,.64,.49,1.29,.75,1.93l.87,1.88c.59,1.25,1.13,2.52,1.75,3.76l1.96,3.68c.34,.61,.63,1.24,1,1.83l1.1,1.79,2.19,3.58,2.42,3.48c.8,1.16,1.59,2.34,2.47,3.44,3.39,4.54,7.09,8.8,11.1,12.78,7.99,7.99,17.19,14.83,27.43,21.39,5.11,3.3,10.46,6.57,15.94,10.06,5.48,3.5,11.09,7.22,16.57,11.47,5.48,4.23,10.82,8.98,15.69,14.26,4.87,5.27,9.23,11.07,12.96,17.16,3.73,6.09,6.85,12.44,9.48,18.88,2.48,6.58,4.74,13.26,6.15,20.12,3.09,13.67,3.78,27.7,2.76,41.36-1.01,13.69-4.03,27.04-7.83,39.63-1.97,6.49-4.25,12.86-6.93,19.02-2.66,6.17-5.6,12.2-8.88,18.02-.8,1.47-1.62,2.92-2.49,4.35-.86,1.43-1.7,2.87-2.58,4.29-1.8,2.81-3.57,5.63-5.49,8.35-1.85,2.77-3.88,5.42-5.84,8.1-2.06,2.61-4.08,5.26-6.26,7.78-2.1,2.58-4.37,5.02-6.59,7.5-2.31,2.4-4.58,4.84-7.01,7.14-2.36,2.36-4.87,4.57-7.35,6.81-2.55,2.17-5.09,4.34-7.77,6.38-10.58,8.25-22.3,15.32-35.17,20.29-1.63,.58-3.23,1.22-4.88,1.75l-4.98,1.52-5.1,1.23c-1.71,.37-3.46,.64-5.18,.95-6.96,1.08-14.16,1.29-21.28,.48-7.12-.83-14.13-2.67-20.62-5.47-6.5-2.77-12.53-6.35-18.05-10.41-11.04-8.16-20.13-18.03-28.14-28.36-8.01-10.36-14.96-21.27-21.46-32.32-6.48-11.06-12.47-22.3-18.31-33.55-5.82-11.26-11.54-22.5-17.42-33.57-5.9-11.05-11.93-21.99-18.8-32.14-3.45-5.04-7.07-9.95-11.1-14.27-1.99-2.2-4.11-4.17-6.29-6.03-2.21-1.79-4.5-3.36-6.88-4.62-4.75-2.47-9.85-3.37-14.84-2.37-4.9,.9-9,3.94-12.45,8.29-3.44,4.35-6.17,9.74-8.6,15.31-2.42,5.59-4.54,11.45-6.61,17.35-4.12,11.83-8.01,23.91-12.35,35.86-8.6,23.94-18.99,47.46-32.06,69.5-6.51,11.03-13.67,21.68-21.41,31.88-7.71,10.22-16.04,20.02-24.94,29.25-17.82,18.47-37.97,34.67-59.47,48.53-10.75,6.94-21.79,13.37-32.91,19.51-11.1,6.15-22.33,11.98-33.06,18.19-5.34,3.12-10.56,6.36-15.35,9.9-4.78,3.54-9.15,7.4-12.35,11.73-3.21,4.32-5.12,9.04-5.55,14.14-.24,2.56-.04,5.17,.36,7.71,.45,2.54,1.3,5.02,2.33,7.46,2.22,4.85,5.55,9.44,9.46,13.7,3.92,4.26,8.42,8.2,13.17,11.9,4.77,3.69,9.75,7.2,14.95,10.48,5.17,3.3,10.47,6.47,15.88,9.5,21.63,12.13,44.39,22.68,67.35,32.76,22.99,10.04,46.3,19.54,69.7,28.75,23.41,9.19,46.91,18.13,70.57,26.56,47.29,17,95.13,32.2,143.44,45.99,24.16,6.93,48.46,13.43,72.89,20.3,12.23,3.47,24.49,7.02,36.8,10.99,12.29,4,24.65,8.44,36.88,14.05,12.2,5.61,24.3,12.54,35.27,21.28,10.99,8.7,20.67,19.11,28.71,30.26,16,22.38,26.91,47.85,33.03,73.99,3.12,13.07,5.32,26.31,6.37,39.59,.38,3.32,.51,6.64,.68,9.96,.16,3.32,.41,6.64,.38,9.96l.09,9.96-.3,9.93c-.05,3.32-.36,6.61-.57,9.91-.24,3.3-.42,6.61-.83,9.88l-1.08,9.85-1.44,9.79c-2.1,13.02-4.7,25.97-8.21,38.67l-1.26,4.78-1.42,4.73c-.96,3.15-1.88,6.31-2.89,9.45-2.15,6.22-4.17,12.5-6.61,18.62l-1.77,4.61-.89,2.31-.96,2.27-3.86,9.1c-1.3,3.03-2.76,5.98-4.14,8.98l-2.1,4.48c-.71,1.49-1.49,2.94-2.24,4.41l-4.53,8.8-4.85,8.64c-.82,1.43-1.59,2.9-2.46,4.3l-2.59,4.23-2.6,4.22c-.87,1.41-1.71,2.83-2.65,4.19l-5.52,8.25-1.39,2.06-1.46,2.01-2.92,4.02c-3.81,5.42-8.04,10.54-12.14,15.76-2.12,2.55-4.32,5.05-6.48,7.57l-3.26,3.77-3.41,3.64c-2.29,2.42-4.53,4.88-6.86,7.25-2.38,2.33-4.69,4.73-7.13,6.99-9.65,9.18-19.86,17.76-30.54,25.67-21.34,15.87-44.51,29.08-68.71,39.76-48.45,21.3-100.96,32.39-153.75,33.11-13.2,.15-26.44-.33-39.63-1.61-6.6-.58-13.19-1.49-19.76-2.45-6.57-1.07-13.13-2.21-19.65-3.68-3.27-.67-6.51-1.53-9.76-2.29-3.23-.89-6.48-1.68-9.7-2.67-6.45-1.85-12.84-4.04-19.17-6.41-12.65-4.81-25.04-10.67-36.83-17.94-5.91-3.59-11.62-7.64-17.12-12.01-5.49-4.39-10.78-9.14-15.65-14.39-4.89-5.23-9.43-10.91-13.44-16.95-4.01-6.03-7.5-12.41-10.41-19-5.81-13.19-9.27-27.08-11.03-40.82-1.78-13.76-1.92-27.39-1.13-40.72,.79-13.34,2.47-26.41,4.62-39.22,2.13-12.82,4.73-25.42,7.4-37.82,2.66-12.4,5.4-24.65,7.66-36.68,2.23-11.99,4.06-23.95,3.96-34.7-.08-2.63-.2-5.24-.56-7.58-.36-2.34-.84-4.52-1.49-6.37-.68-1.82-1.48-3.31-2.4-4.54-.94-1.22-1.96-2.24-3.35-3.12-2.72-1.8-6.86-3.01-11.63-3.39-2.37-.21-4.91-.21-7.51-.04-2.6,.16-5.27,.47-7.97,.94-10.83,1.84-21.93,5.72-32.6,10.6-10.7,4.89-21.05,10.9-30.87,17.66-9.82,6.77-19.1,14.37-27.62,22.68-8.51,8.31-16.28,17.33-22.88,27-6.58,9.68-11.96,20.05-15.51,30.86-1.78,5.4-3.04,10.91-3.79,16.46-.08,.69-.22,1.39-.26,2.08l-.14,2.08-.3,4.16c-.03,1.38,.04,2.76,.04,4.15,.04,1.38-.04,2.78,.17,4.14,.93,11,4.13,21.88,9.48,32.28,5.24,10.43,12.08,20.46,19.48,30.29,7.41,9.84,15.42,19.49,23.43,29.24,8.03,9.75,16.11,19.57,23.92,29.66,7.81,10.09,15.44,20.37,22.63,30.97,7.17,10.62,14,21.48,20.32,32.63,1.6,2.77,3.08,5.62,4.62,8.43l2.29,4.22c.76,1.41,1.45,2.86,2.18,4.28l4.31,8.58,4.04,8.71,2.01,4.36c.65,1.46,1.25,2.95,1.88,4.42l3.72,8.84c1.2,2.96,2.3,5.97,3.45,8.95,1.11,2.99,2.34,5.94,3.33,8.98,8.56,24.07,15.05,48.8,19.58,73.83,2.28,12.51,3.99,25.12,5.25,37.75,1.28,12.63,2,25.3,2.27,37.96l-3.2,.16c-3.88-50.19-15.01-99.67-33.8-145.95-1.09-2.93-2.41-5.75-3.62-8.63-1.25-2.86-2.43-5.74-3.73-8.57l-3.98-8.45c-.67-1.41-1.31-2.82-2-4.22l-2.13-4.16-4.26-8.31-4.51-8.17c-.76-1.36-1.48-2.73-2.27-4.07l-2.38-4.01c-1.6-2.66-3.14-5.37-4.8-7.99-6.55-10.57-13.58-20.83-20.89-30.88-7.35-10.03-15.13-19.77-23.13-29.36-8.01-9.58-16.26-19.01-24.61-28.48-8.34-9.48-16.78-18.99-24.9-29.06-8.1-10.07-15.91-20.74-22.39-32.69-6.56-11.84-11.23-25.46-12.81-39.58-.29-1.76-.29-3.53-.39-5.3-.07-1.77-.19-3.55-.2-5.31l.22-5.29,.12-2.65c.03-.88,.17-1.75,.25-2.62,.75-6.99,2.14-13.87,4.13-20.52,3.98-13.31,10.05-25.72,17.34-37.11,7.32-11.39,15.85-21.82,25.18-31.36,9.33-9.55,19.45-18.24,30.23-26.06,10.78-7.81,22.18-14.82,34.3-20.72,12.15-5.86,24.95-10.76,38.98-13.49,3.5-.69,7.1-1.2,10.79-1.5,3.69-.32,7.48-.42,11.4-.17,3.91,.24,7.95,.8,12.06,1.9,4.11,1.1,8.31,2.75,12.31,5.19,4.01,2.4,7.73,5.69,10.7,9.41,2.99,3.73,5.21,7.85,6.8,11.92,1.56,4.07,2.51,8.07,3.17,11.95,.66,3.89,.9,7.6,1.06,11.27,.35,14.53-1.61,27.67-3.72,40.52-2.17,12.82-4.73,25.26-7.14,37.59-2.42,12.32-4.7,24.5-6.54,36.61-1.85,12.11-3.2,24.14-3.72,36.02-.53,11.87-.2,23.59,1.44,34.86,1.62,11.26,4.55,22.05,9.04,31.94,4.52,9.89,10.61,18.76,18.16,26.63,3.75,3.96,7.94,7.61,12.34,11.06,4.41,3.43,9.05,6.67,13.96,9.58,9.77,5.89,20.34,10.79,31.32,14.84,5.51,1.99,11.08,3.87,16.78,5.45,2.82,.85,5.71,1.53,8.57,2.3,2.9,.65,5.76,1.4,8.68,1.97,5.8,1.28,11.7,2.24,17.59,3.16,5.92,.82,11.85,1.59,17.83,2.08,11.94,1.1,23.97,1.48,36.01,1.28,12.04-.19,24.08-1.01,36.06-2.4,11.98-1.4,23.91-3.32,35.69-5.9,23.58-5.09,46.66-12.43,68.69-22.06,44.11-19.16,83.8-47.83,114.38-84.58,3.72-4.69,7.6-9.26,11.07-14.15l2.68-3.62,1.34-1.81,1.27-1.86,5.07-7.45c.87-1.23,1.64-2.51,2.44-3.79l2.39-3.82,2.4-3.82c.81-1.27,1.52-2.6,2.28-3.9l4.51-7.83,4.22-7.99c.69-1.34,1.43-2.65,2.09-4.01l1.96-4.08c1.29-2.73,2.66-5.41,3.88-8.17l3.62-8.29,.91-2.07,.83-2.1,1.66-4.21c2.31-5.58,4.21-11.31,6.25-16.99,.95-2.86,1.82-5.76,2.73-8.63l1.35-4.32,1.2-4.36c3.35-11.6,5.86-23.42,7.92-35.28l1.43-8.92,1.09-8.96c.42-2.98,.6-5.98,.86-8.97,.23-2.99,.56-5.99,.63-8.98l.39-8.99,.02-8.98c.07-3-.14-5.97-.24-8.96-.12-2.98-.2-5.97-.5-8.93-.79-11.9-2.63-23.66-5.22-35.17-5.08-23.06-14.31-44.93-27.44-63.82-6.62-9.4-14.21-17.71-22.93-24.8-8.7-7.1-18.55-13.02-29.21-18.09-10.66-5.07-22.03-9.36-33.69-13.33-11.66-3.98-23.58-7.67-35.58-11.3-24.06-7.19-48.4-14.25-72.62-21.76-24.24-7.47-48.38-15.41-72.36-23.73-23.99-8.34-47.77-17.23-71.41-26.43-5.9-2.33-11.83-4.58-17.7-6.97l-17.64-7.13c-5.88-2.37-11.71-4.87-17.56-7.3-5.85-2.45-11.7-4.87-17.51-7.41-23.3-9.97-46.47-20.22-69.45-31.07-22.97-10.86-45.79-22.19-67.86-35.37-5.52-3.29-10.97-6.75-16.34-10.39-5.38-3.61-10.62-7.53-15.74-11.68-5.1-4.18-10.04-8.69-14.55-13.83-4.49-5.14-8.59-10.95-11.47-17.66-1.36-3.39-2.47-6.95-3.04-10.65-.51-3.7-.68-7.44-.27-11.16,.4-3.73,1.35-7.47,2.82-10.95,1.46-3.49,3.41-6.7,5.63-9.56,4.46-5.75,9.82-10.15,15.24-14.02,5.44-3.86,11.05-7.15,16.65-10.3,11.23-6.25,22.51-11.87,33.58-17.77,11.09-5.87,21.97-12,32.5-18.65,10.53-6.64,20.72-13.78,30.45-21.51,9.72-7.73,18.96-16.06,27.64-24.93,17.36-17.74,32.52-37.7,45.23-59.08,6.35-10.69,12.12-21.74,17.28-33.09,5.17-11.34,9.76-22.96,13.96-34.76,4.22-11.8,8.03-23.77,12.1-35.82,2.06-6.02,4.18-12.06,6.73-18.08,2.57-6,5.44-12.06,9.77-17.69,2.19-2.78,4.73-5.49,7.88-7.65,1.54-1.12,3.26-2.02,5.01-2.83,1.78-.73,3.62-1.39,5.49-1.76,3.71-.84,7.56-.9,11.31-.36,3.74,.56,7.35,1.74,10.59,3.37,3.24,1.64,6.19,3.61,8.91,5.76,2.66,2.19,5.19,4.5,7.48,6.94,4.65,4.85,8.63,10.08,12.39,15.39,7.47,10.64,13.91,21.7,20.13,32.79,6.21,11.09,12.14,22.25,18.24,33.25,6.08,11,12.26,21.89,18.83,32.44,6.57,10.54,13.57,20.73,21.29,30.13,7.72,9.36,16.21,17.96,25.75,24.49,4.76,3.26,9.76,5.99,14.95,7.99,5.18,2.03,10.56,3.22,15.99,3.67,10.87,.86,22.09-1.4,32.62-5.93,10.55-4.48,20.51-10.89,29.57-18.46,2.29-1.86,4.48-3.87,6.67-5.86,2.13-2.07,4.3-4.09,6.33-6.27,2.09-2.11,4.05-4.37,6.04-6.58,1.91-2.29,3.87-4.54,5.68-6.91,1.88-2.32,3.6-4.76,5.38-7.15,1.68-2.47,3.42-4.89,4.99-7.43,1.64-2.49,3.14-5.07,4.66-7.63,.74-1.29,1.44-2.6,2.17-3.9,.74-1.29,1.42-2.61,2.08-3.94,2.75-5.27,5.16-10.69,7.32-16.19,2.21-5.48,4.02-11.08,5.55-16.71,3.14-11.66,5.35-23.16,5.87-34.7,.57-11.51-.3-22.97-3.07-33.86-1.25-5.49-3.22-10.74-5.29-15.93-2.25-5.19-4.82-10.16-7.77-14.78-5.9-9.27-13.44-16.98-22.6-23.74-9.11-6.81-19.85-12.8-30.95-19.75-11.08-6.92-22.44-14.99-32.39-24.81-4.99-4.87-9.64-10.13-13.85-15.67-1.09-1.35-2.09-2.79-3.09-4.21l-3-4.29-2.78-4.47-1.38-2.24c-.46-.75-.85-1.54-1.28-2.31l-2.51-4.67c-.8-1.58-1.52-3.21-2.27-4.81l-1.12-2.41c-.35-.82-.66-1.65-.99-2.47-.65-1.65-1.32-3.3-1.94-4.96-2.36-6.71-4.17-13.57-5.51-20.47-1.25-6.9-2.02-13.79-2.44-20.59-.4-6.8-.4-13.47-.3-20.02,.11-6.56,.39-12.93,.63-19.2,.25-6.27,.47-12.4,.47-18.39,.06-12-.79-23.47-3.31-34.36-1.31-5.42-2.85-10.75-5.03-15.85l-.77-1.93-.89-1.88-1.77-3.77-2-3.68-.99-1.84-1.11-1.78-2.21-3.57c-.77-1.17-1.61-2.29-2.41-3.44-1.55-2.34-3.4-4.46-5.12-6.67-.86-1.11-1.86-2.11-2.77-3.18-.95-1.04-1.83-2.14-2.86-3.11l-2.99-3c-.97-1.03-2.09-1.92-3.12-2.89-8.38-7.66-18.02-14.15-28.27-19.79-5.17-2.77-10.44-5.4-15.92-7.72-5.43-2.39-11.04-4.51-16.71-6.5-5.67-2-11.47-3.76-17.3-5.48-5.86-1.65-11.77-3.22-17.75-4.65-11.96-2.88-24.13-5.32-36.54-7.8-6.21-1.25-12.48-2.5-18.89-3.97-3.2-.75-6.4-1.6-9.6-2.4l-2.4-.61-2.37-.7-4.74-1.4c-12.61-3.85-24.98-8.42-36.95-13.8-23.91-10.82-46.51-24.2-67.32-39.7-20.88-15.43-40.3-32.56-58.36-50.88-18.05-18.34-34.81-37.78-50.52-57.94-15.68-20.19-30.39-41.05-44.31-62.36l-10.21-16.13-2.55-4.03-2.46-4.08-4.91-8.17c-6.67-10.82-12.81-21.95-19.12-32.96-12.23-22.24-24.12-44.65-35.12-67.48C66.56,94.89,46.46,48.41,28.27,1.25l2.95-1.25Z"/><path class="d" d="M1.88,700.61c15.46,9.17,30.9,18.21,46.56,26.76,15.66,8.55,31.46,16.73,47.49,24.3,8.01,3.79,16.05,7.47,24.17,10.94,8.11,3.49,16.25,6.84,24.47,9.93,16.41,6.25,33.05,11.68,49.8,15.88,4.19,1.03,8.38,2,12.58,2.83,4.19,.87,8.38,1.64,12.57,2.28,8.37,1.31,16.73,2.08,24.89,2.21,8.14,.13,16.14-.45,23.38-2.13,3.61-.84,7.02-1.95,10.11-3.3,3.09-1.37,5.78-3.05,8.08-4.95,1.13-.99,2.16-1.93,3.1-3.11,.48-.59,.98-1.11,1.45-1.82,.47-.69,.98-1.27,1.42-2.05,1.88-2.84,3.58-6.21,5.12-9.72,3.12-7.03,5.44-14.88,7.34-22.85,3.64-16.06,5.28-32.94,5.06-49.74-.18-8.4-.72-16.81-1.92-25.12-1.11-8.32-2.87-16.53-5.15-24.56-.54-2.02-1.2-4-1.85-5.98-.61-2-1.39-3.93-2.11-5.88-1.5-3.9-3.12-7.65-5.03-11.54-1.89-3.9-3.99-7.95-6-12.29-2-4.34-3.94-8.98-5.31-14.07-1.37-5.07-2.11-10.66-1.64-16.24,.45-5.59,2.09-10.96,4.41-15.7,2.3-4.78,5.33-8.98,8.65-12.75,3.33-3.78,7.02-7.11,10.98-10.01,7.9-5.8,16.67-10.21,26.03-12.82,9.32-2.65,19.29-3.58,29.08-1.84,4.88,.87,9.67,2.42,14.12,4.6,4.46,2.18,8.56,4.99,12.21,8.22,7.32,6.46,12.95,14.35,17.34,22.67,2.19,4.17,4.09,8.47,5.73,12.84,1.66,4.37,3.07,8.82,4.23,13.33,2.33,9,3.8,18.33,3.92,27.86l-.04,3.57c-.02,1.19-.13,2.38-.19,3.57-.05,1.19-.16,2.38-.29,3.56-.13,1.18-.22,2.38-.42,3.55-.63,4.73-1.67,9.38-2.95,13.93-2.51,9.12-6.13,17.71-9.49,25.97-1.67,4.13-3.28,8.19-4.64,12.2-1.35,4.02-2.42,8-3.08,11.93-1.36,7.86-.87,15.51,1.28,22.99,1.06,3.68,2.61,7.56,4.33,11.22,1.74,3.67,3.7,7.2,5.9,10.43,4.37,6.48,9.75,11.8,15.5,14.58,2.85,1.37,5.9,2.25,8.7,2.36,2.83,.11,5.56-.26,8.6-1.36,3.03-1.05,6.27-2.67,9.69-4.74,3.41-2.05,6.99-4.45,10.79-6.93,7.6-4.96,16.25-10.5,26.88-13.94,5.29-1.71,11.04-2.8,16.85-3.02,5.81-.21,11.62,.44,17.09,1.72,10.98,2.62,20.64,7.64,29.2,13.63,8.53,6.06,15.98,13.21,22.49,21.21,3.23,4.03,6.23,8.28,8.92,12.83,2.69,4.56,5.1,9.4,7.04,14.72,1.9,5.34,3.43,11.14,3.68,17.94l-.02,2.62c-.01,.44-.01,.87-.04,1.32l-.13,1.39c-.1,.93-.2,1.84-.33,2.77-.19,.97-.4,1.93-.63,2.9-.12,.49-.21,.95-.38,1.45l-.51,1.49c-.37,.99-.68,1.96-1.16,2.95-.91,1.97-2.05,3.97-3.46,5.82-2.78,3.74-6.4,6.65-9.74,8.59-3.36,1.97-6.49,3.18-9.39,4.14-5.79,1.86-10.79,2.72-15.66,3.53-9.66,1.52-18.61,2.33-27.58,3.28-8.93,.9-17.75,1.86-26.55,2.8-8.83,.95-17.49,2.02-26.44,3.14-17.77,2.22-35.55,4.27-53.06,6.58-8.74,1.17-17.44,2.38-25.88,3.82-2.12,.35-4.18,.76-6.28,1.14-2.09,.39-4.09,.85-6.15,1.25-2.02,.44-3.98,.93-5.97,1.39l-2.87,.78c-.96,.26-1.92,.51-2.81,.82l-2.74,.87c-.89,.3-1.73,.64-2.59,.95l-1.29,.47-1.21,.52c-.81,.37-1.58,.65-2.44,1.07l-5.19,2.64c-1.65,.98-3.34,1.92-4.98,2.91-6.49,4.06-12.38,8.82-17.66,14.4-5.3,5.56-10.01,11.91-14.38,18.89-4.36,6.98-8.37,14.55-12.33,22.4-7.95,15.68-15.86,32.44-25.65,48.36-4.87,7.97-10.09,15.79-15.77,23.26-5.65,7.5-11.79,14.62-18.23,21.4-1.64,1.67-3.21,3.4-4.9,5.01l-5.03,4.86c-1.67,1.62-3.45,3.13-5.17,4.7-1.75,1.53-3.43,3.15-5.24,4.6-3.62,2.92-7.14,5.95-10.89,8.68-1.86,1.39-3.69,2.81-5.56,4.16l-5.71,3.95c-.96,.65-1.89,1.32-2.86,1.95l-2.92,1.86c-1.95,1.23-3.88,2.49-5.85,3.69-3.99,2.32-7.91,4.72-12,6.84-2.03,1.07-4.02,2.21-6.09,3.22l-6.16,3.05c-2.05,1.01-4.17,1.91-6.24,2.87l-3.12,1.41-3.16,1.33c-16.85,7.08-34.24,12.54-51.86,16.49l-.94-3.06,6.22-2.53,6.17-2.6c4.09-1.79,8.15-3.61,12.17-5.52,8.05-3.78,15.92-7.86,23.57-12.27,7.66-4.39,15.15-9.02,22.34-14.04,3.65-2.43,7.11-5.12,10.65-7.67,1.74-1.32,3.43-2.7,5.15-4.04l2.57-2.02c.85-.68,1.67-1.41,2.5-2.11,13.34-11.18,25.65-23.47,36.4-36.89,10.86-13.33,20.04-27.78,27.98-43.03,3.96-7.64,7.62-15.48,11.18-23.51,3.56-8.03,6.97-16.26,10.67-24.63,3.71-8.36,7.65-16.88,12.37-25.37,4.69-8.49,10.37-16.87,17.11-24.6,6.74-7.72,14.58-14.72,23.11-20.46,2.14-1.41,4.32-2.74,6.49-4.11,2.21-1.26,4.44-2.47,6.67-3.69,4.82-2.45,9.86-4.56,14.66-6.13,9.7-3.29,19-5.32,28.2-7.13,9.2-1.8,18.24-3.19,27.26-4.51,18.02-2.61,35.86-4.76,53.69-6.81,8.85-1.02,18-2.05,27.01-2.92,9.03-.9,18.08-1.58,27-2.31,8.89-.73,17.81-1.4,25.91-2.41,3.99-.51,7.87-1.16,10.64-1.97,1.37-.39,2.45-.82,2.97-1.09,.55-.29,.46-.27,.39-.1-.15,.47,.49-.56,.54-2.69,.04-2.18-.51-5.21-1.52-8.33-2.04-6.33-5.8-13.04-10.34-19.1-4.6-6.06-10.03-11.62-15.97-16.16-5.95-4.49-12.42-8-18.86-9.81-6.47-1.76-12.58-1.88-19.17-.15-6.59,1.76-13.58,5.39-21.22,9.8-3.83,2.21-7.87,4.57-12.31,6.83-4.42,2.26-9.36,4.45-14.94,5.93-5.53,1.52-11.9,2.01-17.98,1.13-6.12-.86-11.69-3.07-16.67-6.01-4.97-2.96-9.21-6.68-12.76-10.69-3.57-4.02-6.48-8.33-8.95-12.74-2.48-4.42-4.51-8.95-6.24-13.55-1.71-4.62-3.14-9.23-4.16-14.28-1.01-4.98-1.53-10.14-1.41-15.27,.11-5.14,.85-10.22,2.07-15.06,1.21-4.84,2.88-9.43,4.7-13.79,1.82-4.37,3.81-8.53,5.77-12.59,3.96-8.1,7.7-15.91,10.42-23.97,2.71-8.04,4.31-16.33,4.52-24.77,.05-4.22-.08-8.44-.6-12.69-.48-4.25-1.29-8.48-2.28-12.67-1-4.19-2.2-8.33-3.67-12.37-1.48-4.03-3.18-7.96-5.14-11.74-3.88-7.56-8.91-14.48-15.13-19.82-6.18-5.39-13.67-8.86-21.61-9.99-3.97-.6-8.05-.59-12.09-.11-4.05,.47-8.06,1.4-11.96,2.7-3.9,1.31-7.66,3.06-11.23,5.1-3.57,2.05-6.96,4.39-10.03,7.06-3.09,2.64-5.87,5.58-8.25,8.73-2.38,3.13-4.32,6.51-5.62,9.94-1.32,3.44-2.03,6.88-1.95,10.28,.06,3.39,.82,6.78,2.12,10.25,2.61,6.97,7.35,14.03,12.15,21.93,2.41,3.96,4.79,8.25,6.91,12.55,1.04,2.17,2.13,4.32,3.05,6.54,.96,2.2,1.93,4.41,2.76,6.65,6.97,17.9,10.88,36.79,12.29,55.79,1.39,19.02,.28,38.2-3.71,57.18-1.07,4.75-2.2,9.49-3.72,14.2l-.54,1.77-.61,1.77c-.41,1.18-.8,2.36-1.23,3.53-.93,2.35-1.81,4.7-2.89,7.04-2.08,4.68-4.48,9.34-7.61,13.94-.71,1.15-1.64,2.3-2.47,3.43-.81,1.14-1.82,2.27-2.79,3.39-.94,1.13-2.04,2.2-3.12,3.27-1.09,1.05-2.24,2.03-3.39,2.99-4.67,3.75-9.75,6.69-14.9,8.88-5.15,2.19-10.36,3.68-15.51,4.72-10.31,2.06-20.36,2.4-30.12,1.98-4.89-.19-9.7-.7-14.45-1.31-4.75-.62-9.45-1.39-14.09-2.31-9.29-1.79-18.37-4.16-27.27-6.87-17.82-5.39-34.94-12.28-51.57-19.96-8.3-3.88-16.48-7.96-24.53-12.24-8.04-4.32-15.98-8.77-23.78-13.44-31.19-18.69-60.6-39.95-87.84-63.6l1.88-2.59Z"/><path class="d" d="M187.46,1339.85c86.8,35.85,165.51,87.78,241.4,142.65,76.11,54.87,146.58,120.4,198.28,199.29,38.78,60.78,50.29,119.36,2.92,179.53-30.84,39.16-87.91,75.83-139.71,66.62-4.71-.94-9.51-2.21-13.93-4.13-1.02-.43-2.48-.98-3.44-1.5-1.3-.66-3.86-2.02-5.06-2.73-.92-.55-3.87-2.63-4.84-3.26-1.06-.94-3.49-2.84-4.48-3.75-.8-.67-3.23-3.3-4.05-4.11-7.83-8.66-13.38-20.21-17.08-30.07-3.01-7.95-5.38-15.68-7.63-23.29-8.52-29.82-16.59-58.51-27.93-87-38.78-100.05-107.18-184.41-175.83-265.68-20.06-23.5-40.86-46.46-62.03-69.28l2.14-2.38c37.46,28.09,72.53,59.61,105.39,93,97.02,97.7,159.73,186.4,189.15,322.83,3.53,13.44,7.13,28.13,14.25,39.21,1.28,1.76,2.63,3.51,4.14,5.07l.72,.64c.48,.43,.95,.87,1.41,1.32,.77,.6,1.59,1.1,2.34,1.72,.97,.62,2.02,1.15,3,1.78,1.2,.55,2.22,.98,3.34,1.51,2.01,.75,4.23,1.45,6.34,1.92,8.6,2.13,17.83,1.8,26.6,.74,35.64-5.57,68.85-24.94,93.94-50.65,34.14-35.94,42.3-76.4,23.54-122.47-29.24-70.14-96.6-120.37-154.9-166.03-82.45-62.35-175.44-134.98-260.87-192.58l-38.61-26.14,1.51-2.82h0Z"/></g></g></g></svg>