<?xml version="1.0" encoding="UTF-8"?><svg xmlns="http://www.w3.org/2000/svg" xmlns:xlink="http://www.w3.org/1999/xlink" viewBox="0 0 452.7 386.93"><defs><style>.e{font-family:Cremona-Regular, Cremona;font-size:41px;}.e,.f{fill:#f2f3f0;}.g{clip-path:url(#d);}.h{fill:none;}</style><clipPath id="d"><rect class="h" width="452.7" height="386.93" transform="translate(452.7 386.93) rotate(180)"/></clipPath></defs><g id="a"/><g id="b"><g id="c"><g class="g"><path class="f" d="M270.75-176.34c30.92,1.77,108.5,9.37,100.2,54.39-4.29,16.52-19.6,27.18-28.36,39.93-12.67,17.15-8.24,33.15,5.14,48.08,17.16,19.07,40.25,32.33,60.78,47.83,10.41,8.04,21.38,16.38,27.83,28.41,6.74,12.53,3.72,26.32-7.32,35.49-13.54,11.1-31.91,14.95-48.6,17.43-31.61,4.06-63.55,2.44-94.33-5.23-7.36-1.78-14.85-4.01-22.11-5.57-3.02-.6-6.56-1.19-9.34-.63-9.25,2.1-1.11,17.5,1.07,23.13,3.06,6.91,6.39,13.89,9.44,21.02,9.5,21.44,15.46,44.25,18.65,67.46,2.82,19.71,4.23,40.3-1.01,59.83-14.21,54-82.06,51.44-120.85,26.13-19.68-12.4-34.91-32.79-35.51-56.73-.62-28.23,8.58-45.22-5.22-72.93-9-17.61-23.43-33-40.36-43.29-6.1-3.46-14.25-7.63-20.8-6.92-.59,.28,.16-.3-.31,.13-.19,.17-.5,.83-.83,1.6-.18,.47-.34,.92-.47,1.43-2.46,10-1.43,20.57-.7,31.47,2.69,35.39,14.26,87.02-.1,119.95-9.1,20.55-28.09,29.13-49.8,25.52-23.92-4.05-45.33-13.86-67.41-22.2-29-11.53-56.51-26.43-81.38-44.66l1.52-2.47c27.32,13.78,55.64,24.91,84.64,33.01,13.13,3.68,31.01,8.76,43.93,11.76,10.24,2.25,20.32,4.49,30.17,3.2,22.19-3.2,19.37-36.12,18.1-53.34-2.13-22.78-6.64-44.36-9.42-67.75-1.59-14.91-3.32-31.75,2-46.79,6.31-17.59,22.69-24.86,40.62-21.29,21.96,4.52,41.24,19.42,55.99,35.56,17.51,19.46,30.25,44.52,30.77,71.22,.43,11.92-2,25.43-3.33,36.18-.81,6.96-.91,12.92,.32,18.28,3.03,12.77,12.67,22.63,23.46,30.03,17.37,11.46,39.15,18.04,59.96,14.79,40.58-6.57,38.13-60.27,34.04-91.68-2.8-26.39-12.6-51.09-24.12-74.94-3.51-8.41-9.03-18.12-5.48-27.61,4.26-9.73,14.51-10.22,23.53-8.68,8,1.21,15.32,2.96,22.76,4.15,29.15,5.02,59.62,3.16,88.22-3.35,7.07-1.68,14-3.68,20.39-6.23,5.63-2.18,11.76-5.22,15.78-9.02,1.65-1.61,2.23-2.97,2.08-3.18-.04-.15-.03-.17-.13-.53-.41-1.49-1.69-3.16-2.92-4.71-3.07-3.61-6.53-6.74-10.47-9.91-5.49-4.41-11.51-8.78-17.64-13.19-30.88-22.73-79.64-53.4-70.61-98.4,7.85-37.29,55.06-48.56,37.22-69.74-4.14-4.93-10.18-8.87-16.08-12.02-6.36-3.39-13.24-6.24-20.27-8.8-10.68-3.85-21.63-6.99-32.62-9.91l-11.13-2.83,.43-2.87h0Z"/><path class="f" d="M237.57-115.56c14.23,5.01,41.84,16.36,37.99,35.52-1.6,7.69-9.03,12.49-15.17,15.88-2.88,1.67-6.27,3.44-8.08,5.61-.56,.77-.67,1.18-.64,1.53,.14,1.33,.72,2.25,1.58,3.89,2.52,4.23,6.49,8.02,10.13,11.56,12.43,11.63,26.48,21.63,38.13,34.8,22.29,24.85,11.68,49.81-20.38,55.08-9.99,1.93-21.34,1.06-30.48-3.07-8.46-3.53-15.13-8.46-22.93-12.21-4.36-2.19-9.06-3.86-13.78-5.13-2.72-.59-6.01-1.28-8.77-1.55-5.61-.64-11.86-1.1-17.3,.22-.92,.23-2.24,.75-2.64,1.18,.05,.02,0-.43,.05-.21,.8,1.99,2.87,3.9,4.59,5.92,2.87,3.22,5.86,6.89,8.13,11.08,7.25,13.82,9.4,33.92,2.36,48.29-7.1,14.6-24.7,12.8-37.54,8.45-13.57-4.68-25.56-11.96-36.12-21.95-11.88-11.18-21.87-28.79-16.05-45.82,6.71-19.81,29.08-27.7,44.71-38.27,1.57-1.19,3.63-2.7,4.18-3.91-.05,.01,.02,0-.06,.07-.07,.07-.1,.15-.11,.25-.08,.11-.13,.24-.13,.37-.17,.37-.05,1.11-.27,.41-2.39-4.4-6.77-7.69-11.24-10.62-9.09-5.66-22.92-11.3-33.28-7.8-2.66,.92-5.16,3.89-6.71,6.75-2.51,4.73-3.98,9.32-5.48,14.85-3.05,10.82-4.73,22.32-10.2,32.83-7.14,13.96-22.07,18.06-35.26,9.58-8.73-5.5-15.63-12.85-22.92-19.78C23.72,8.37,14.7-2.88,7.69-15.08l2.27-1.8C22-5.41,35.92,4.45,49.98,13.18c3.52,2.24,7.02,4.47,10.4,6.29,2.58,1.43,6.02,3.14,8.58,3.26,.9,0,1.28-.19,1.59-.43,.28-.21,.15-.36,.44-.84,.03-.06,.06-.08,.1-.16l.12-.27c.08-.19,.18-.29,.27-.57,.17-.34,.51-1.2,.64-1.59,1.68-4.93,2.2-10.11,3.02-15.82,1.17-8.89,2.19-17.78,4.9-26.84,9.75-33.87,41.03-39.62,70.66-27.75,10.4,4.25,19.84,10.04,27.75,18.42,10.02,10.52,15.6,25.95,7.36,39.64-3.94,6.35-8.26,9.78-14,13.49-10.01,6.46-22.65,10.59-31.81,17.52-1.93,1.54-3.81,3.29-4.68,5.62-.97,4.09,.48,7.39,2.61,11.7,7.11,12.51,19.02,22.97,31.67,29.87,5.24,2.57,10.24,4.89,15.87,4.21,2.94-.68,4.7-4.15,5.92-7.06,3.88-10.36,3.31-23.12-1.48-33.16-2.72-5.75-7.08-9.51-10.99-14.73-2.28-3-3.35-7.05-1.4-10.52,4.53-7.95,20.36-7.51,28.3-7.46,4.39,.01,9.16,.42,13.5,1.12,8.78,1.24,17.68,4.31,25.85,7.28,7.93,2.84,15.38,5.41,23.34,3.8l1.17-.18c.42-.05,.66-.12,1.1-.23,5.65-1.51,12.46-3.48,16.59-7.56,.69-.71,.59-1.17,.34-.77-.03,.07-.07,.09-.1,0-1.02-3.06-3.6-6.48-5.94-9.22-7.87-9.12-16.95-16.83-25.98-25.66-10.02-10.14-22.91-22.31-24.78-37.54-.93-7.21,2.35-15.51,8.15-20.07,5.82-4.83,12.56-6.45,18.83-9.17,1.4-.63,2.31-1.25,2.75-1.52,.46-.28,.71-.49,.89-1.02,.15-.85-.04-2.1-.49-3.09-1.3-3.04-3.76-6.15-6.18-8.73-5.42-5.82-12.06-11.12-18.7-16.44l1.39-2.55h0Z"/><g><path class="f" d="M64.4,294.14l4.67-2.31,2.43-1.11c-.77-.27-1.51-.65-2.22-1.14-.71-.49-1.26-1.13-1.65-1.93-.76-1.53-.81-3.04-.16-4.51,.65-1.48,2.01-2.73,4.07-3.75,1.33-.66,2.59-.97,3.8-.95,1.21,.03,2.28,.32,3.22,.88,.94,.56,1.64,1.33,2.12,2.3,.36,.73,.56,1.44,.58,2.13,.02,.69-.06,1.43-.24,2.21l.03,.05,1.21-.44,.54,1.1-17.75,8.8-.66-1.33Zm4.49-6.83c.33,.66,.81,1.21,1.43,1.64,.63,.43,1.41,.79,2.36,1.08l7.12-3.53c.24-.88,.34-1.66,.29-2.32-.04-.67-.21-1.3-.51-1.89-.39-.78-.96-1.37-1.73-1.76-.77-.39-1.65-.58-2.64-.55-.99,.03-1.99,.29-3,.79-1.6,.79-2.71,1.77-3.33,2.92s-.62,2.36,0,3.62Z"/><path class="f" d="M75.52,301.87c-.76-1.2-.95-2.32-.57-3.36,.38-1.04,1.31-2.03,2.81-2.97l7.41-4.68,.78,1.23-7.24,4.58c-1.19,.75-1.94,1.51-2.26,2.29-.32,.77-.2,1.6,.36,2.48,.43,.67,.99,1.17,1.7,1.49s1.66,.54,2.87,.68l8.47-5.35,.79,1.25-11.58,7.31-.65-1.04,1.83-1.36-.03-.05c-1.03-.14-1.94-.39-2.73-.75-.79-.37-1.44-.95-1.95-1.75Z"/><path class="f" d="M84.34,314.63c-.44-.57-.74-1.18-.9-1.83-.16-.65-.12-1.28,.1-1.9,.22-.62,.68-1.19,1.35-1.72,1.18-.92,2.52-1.07,4.01-.46,1.49,.62,3.3,2.01,5.42,4.18,.55-.41,1.03-.87,1.44-1.39,.41-.52,.63-1.09,.67-1.71,.03-.62-.21-1.26-.73-1.94-.56-.72-1.21-1.26-1.94-1.63-.73-.37-1.39-.64-1.98-.8l.45-1.18c.39,.13,.86,.32,1.4,.57,.54,.25,1.09,.57,1.64,.95,.55,.39,1.06,.87,1.51,1.46,.68,.87,1.03,1.7,1.05,2.5,.02,.8-.2,1.56-.66,2.28-.46,.72-1.09,1.39-1.88,2.01l-6.85,5.34-.75-.97,1.29-1.22-.04-.05c-.87-.19-1.72-.48-2.55-.86s-1.52-.93-2.07-1.64Zm1.18-.52c.48,.61,1.08,1.09,1.79,1.42,.71,.33,1.59,.6,2.62,.81l3.55-2.77c-1.27-1.29-2.37-2.25-3.3-2.87-.93-.62-1.74-.95-2.43-.99-.69-.04-1.31,.16-1.87,.59-.75,.58-1.11,1.21-1.09,1.89,.02,.68,.27,1.32,.74,1.92Z"/><path class="f" d="M93.16,325.19c-.27-.3-.43-.6-.49-.92-.06-.32,0-.64,.17-.98,.17-.33,.46-.68,.85-1.03l13.7-12.31,.99,1.1-13.82,12.43c-.24,.22-.37,.41-.4,.59-.03,.18,.01,.33,.13,.46,.04,.04,.08,.09,.14,.14s.14,.12,.24,.21l-.72,.95c-.12-.07-.24-.15-.37-.24s-.27-.22-.42-.39Z"/><path class="f" d="M97.23,329.01l9.76-9.6,1.04,1.05-9.76,9.6-1.04-1.05Zm12.59-11.31c-.23-.23-.33-.51-.33-.84,0-.33,.14-.62,.4-.87,.24-.24,.53-.36,.85-.36,.32,0,.59,.12,.82,.35,.24,.24,.35,.52,.34,.84,0,.32-.14,.59-.38,.83-.26,.25-.55,.38-.87,.4s-.6-.11-.84-.35Z"/><path class="f" d="M105.03,336.97c-.99-.91-1.41-1.82-1.25-2.73,.16-.91,.66-1.82,1.51-2.75l5.79-6.32-1.55-1.42,.77-.84,1.67,1.38,2.8-2.8,.9,.83-2.67,2.92,2.9,2.65-.85,.92-2.9-2.65-5.85,6.38c-.58,.63-.93,1.25-1.06,1.85-.13,.6,.14,1.21,.82,1.83,.2,.18,.44,.34,.73,.49,.29,.15,.56,.26,.8,.33l-.51,1.11c-.38-.17-.77-.36-1.14-.57-.38-.21-.68-.41-.9-.62Z"/><path class="f" d="M105.68,345.34c-.21-.16-.39-.34-.55-.54s-.3-.39-.42-.58l1.02-.75c.1,.12,.21,.26,.34,.42,.13,.16,.27,.3,.42,.42,.64,.5,1.39,.67,2.25,.49s1.72-.56,2.6-1.15l1.01-.69,4.13-14.4,1.23,.96-2.66,8.58c-.18,.6-.38,1.25-.6,1.95-.22,.7-.42,1.37-.61,2.01l.09,.07c.55-.36,1.12-.75,1.71-1.15,.59-.4,1.14-.78,1.66-1.13l7.39-4.88,1.17,.91-13.67,8.76c-.69,.45-1.41,.82-2.15,1.12-.75,.29-1.5,.43-2.24,.4-.75-.03-1.45-.3-2.11-.82Z"/><path class="f" d="M126.91,353.49c-.33-.22-.57-.47-.71-.76-.14-.29-.17-.62-.09-.99,.08-.37,.26-.77,.55-1.22l9.93-15.51,1.25,.8-10.02,15.66c-.17,.27-.25,.5-.23,.68,.02,.18,.1,.32,.24,.41,.05,.03,.11,.06,.18,.09,.07,.03,.16,.08,.29,.13l-.44,1.11c-.13-.04-.27-.08-.42-.13-.15-.05-.32-.14-.51-.26Z"/><path class="f" d="M136.44,359.06c-.97-.52-1.73-1.25-2.29-2.19-.56-.94-.84-2.01-.83-3.23,0-1.21,.37-2.49,1.09-3.82s1.59-2.34,2.61-3.02c1.01-.68,2.07-1.04,3.16-1.09,1.09-.05,2.12,.19,3.09,.72,.97,.52,1.73,1.25,2.29,2.19,.56,.94,.84,2.02,.83,3.25,0,1.23-.37,2.51-1.09,3.84-.72,1.34-1.59,2.34-2.61,3.01s-2.08,1.03-3.17,1.07-2.12-.19-3.09-.72Zm.61-1.13c.79,.42,1.61,.59,2.47,.49s1.68-.44,2.45-1.02c.77-.59,1.43-1.4,1.99-2.43,.56-1.03,.88-2.04,.95-3.01,.07-.97-.08-1.85-.47-2.63-.39-.78-.97-1.38-1.76-1.81s-1.61-.58-2.46-.47c-.86,.11-1.68,.46-2.46,1.05-.78,.59-1.45,1.4-2.01,2.44-.56,1.04-.87,2.04-.93,3.01-.06,.97,.1,1.84,.48,2.61s.97,1.36,1.75,1.79Z"/><path class="f" d="M151.36,366.17c-1.08-.46-1.95-1.13-2.61-2.02-.66-.89-1.02-1.93-1.1-3.12-.08-1.2,.18-2.5,.77-3.89s1.37-2.48,2.33-3.25c.96-.77,2-1.22,3.1-1.36,1.1-.14,2.17,0,3.2,.44,.86,.36,1.51,.82,1.97,1.38,.46,.55,.82,1.12,1.08,1.71l-1.16,.62c-.24-.55-.54-1.05-.9-1.49-.36-.44-.85-.79-1.46-1.05-.84-.36-1.69-.44-2.55-.26-.86,.18-1.67,.6-2.42,1.25-.75,.65-1.35,1.52-1.81,2.6-.46,1.08-.68,2.11-.66,3.08,.02,.97,.27,1.82,.75,2.56s1.16,1.29,2.03,1.66c.67,.28,1.33,.41,2.01,.37,.67-.03,1.31-.16,1.9-.39l.28,1.23c-.77,.25-1.55,.39-2.35,.41-.8,.02-1.61-.14-2.41-.48Z"/><path class="f" d="M162.23,370.22c-.69-.22-1.28-.56-1.77-1-.5-.45-.82-.99-.98-1.63-.16-.64-.11-1.37,.15-2.18,.46-1.43,1.48-2.3,3.06-2.63,1.58-.33,3.86-.19,6.84,.41,.23-.64,.36-1.3,.41-1.96,.04-.66-.09-1.26-.41-1.79-.32-.53-.88-.93-1.7-1.19-.87-.28-1.71-.37-2.52-.26-.81,.11-1.51,.26-2.09,.45l-.29-1.23c.39-.11,.89-.22,1.48-.32,.59-.1,1.22-.14,1.9-.14,.68,0,1.37,.13,2.07,.35,1.05,.34,1.81,.83,2.27,1.48,.47,.65,.71,1.4,.74,2.26,.02,.86-.12,1.76-.43,2.72l-2.66,8.26-1.17-.38,.38-1.73-.05-.02c-.82,.33-1.69,.57-2.59,.72-.9,.15-1.78,.08-2.63-.19Zm.68-1.1c.74,.24,1.5,.29,2.28,.17,.78-.13,1.65-.39,2.62-.8l1.38-4.28c-1.78-.35-3.23-.53-4.35-.52-1.12,0-1.98,.19-2.57,.55-.59,.36-1,.87-1.21,1.54-.29,.9-.24,1.63,.17,2.18,.4,.55,.96,.94,1.69,1.17Z"/><path class="f" d="M175.46,374c-.39-.09-.69-.26-.92-.49-.23-.23-.36-.53-.41-.91-.04-.37,0-.82,.12-1.33l4.41-17.88,1.44,.35-4.45,18.05c-.08,.31-.08,.55,0,.72,.08,.17,.2,.27,.36,.31,.06,.01,.12,.03,.2,.03,.08,0,.18,.02,.31,.03l-.06,1.19c-.14,0-.29,0-.44,0-.16,0-.35-.03-.57-.08Z"/><path class="f" d="M192.35,377.13c-1.17-.16-2.18-.58-3.04-1.27-.86-.68-1.49-1.6-1.88-2.73-.39-1.14-.48-2.46-.27-3.96,.21-1.5,.68-2.75,1.41-3.74,.73-.99,1.61-1.7,2.64-2.12,1.03-.42,2.09-.56,3.2-.4,.92,.13,1.67,.4,2.26,.82s1.08,.87,1.49,1.37l-.96,.9c-.38-.47-.79-.88-1.26-1.21-.46-.33-1.02-.54-1.68-.64-.9-.12-1.75,.01-2.53,.41s-1.45,1.01-2.01,1.83c-.55,.82-.91,1.82-1.07,2.98s-.11,2.21,.17,3.14c.27,.93,.74,1.69,1.39,2.28,.66,.59,1.45,.95,2.39,1.08,.71,.1,1.39,.04,2.03-.16,.64-.21,1.22-.5,1.73-.87l.59,1.12c-.68,.44-1.4,.78-2.17,1.01-.77,.23-1.59,.28-2.45,.16Z"/><path class="f" d="M205.86,378.32c-1.17-.06-2.23-.4-3.17-1.02-.94-.62-1.66-1.48-2.17-2.58-.51-1.1-.73-2.4-.65-3.9,.08-1.48,.43-2.74,1.05-3.79,.62-1.05,1.41-1.84,2.36-2.37,.95-.53,1.93-.77,2.96-.71,1.1,.06,2.03,.36,2.79,.9,.76,.54,1.33,1.3,1.71,2.27,.38,.97,.53,2.12,.46,3.45,0,.17-.02,.35-.04,.54-.02,.19-.05,.37-.1,.54l-10.09-.53,.06-1.17,8.81,.46c.09-1.67-.2-2.94-.85-3.82-.66-.88-1.59-1.35-2.8-1.41-.74-.04-1.47,.14-2.19,.53-.72,.39-1.34,1.01-1.84,1.87-.5,.86-.79,1.97-.86,3.33-.07,1.27,.11,2.35,.53,3.25,.42,.9,.99,1.6,1.73,2.11,.73,.51,1.57,.79,2.52,.84,.74,.04,1.41-.04,2.01-.24,.6-.2,1.16-.45,1.69-.77l.51,1.08c-.57,.31-1.2,.59-1.9,.84-.7,.25-1.54,.35-2.52,.29Z"/><path class="f" d="M215.37,378.15l-.33-13.69,1.22-.03,.23,2.53h.06c.45-.87,1-1.57,1.66-2.12s1.38-.83,2.17-.85c.25,0,.49,0,.71,.04,.23,.03,.45,.1,.66,.21l-.28,1.32c-.23-.09-.43-.15-.59-.17s-.38-.03-.67-.03c-.61,.01-1.24,.29-1.89,.81-.65,.53-1.22,1.43-1.7,2.72l.22,9.22-1.48,.04Z"/><path class="f" d="M227.92,377.86c-.72,.07-1.39,0-2.02-.22-.63-.21-1.15-.58-1.55-1.11-.4-.52-.65-1.21-.73-2.06-.15-1.49,.44-2.7,1.76-3.63,1.32-.93,3.46-1.71,6.43-2.35-.05-.68-.18-1.33-.41-1.96-.22-.63-.59-1.12-1.09-1.48-.5-.36-1.18-.5-2.03-.42-.91,.09-1.71,.34-2.41,.76s-1.28,.84-1.74,1.24l-.76-1.01c.32-.26,.73-.55,1.23-.88,.5-.33,1.06-.62,1.69-.88,.62-.26,1.3-.43,2.04-.5,1.09-.11,1.99,.04,2.68,.45,.69,.41,1.21,1,1.58,1.78,.36,.77,.59,1.66,.69,2.66l.84,8.64-1.22,.12-.34-1.74h-.06c-.62,.64-1.32,1.2-2.09,1.7-.77,.49-1.6,.79-2.49,.87Zm.19-1.28c.77-.08,1.49-.33,2.16-.75,.66-.43,1.36-1.02,2.08-1.78l-.44-4.48c-1.77,.38-3.17,.8-4.2,1.25-1.02,.45-1.74,.96-2.14,1.52-.4,.56-.57,1.2-.5,1.89,.09,.94,.43,1.59,1.02,1.93,.59,.34,1.26,.48,2.01,.4Z"/><path class="f" d="M240.44,376.16l-3.01-13.36,1.2-.27,.62,1.99h.06c.44-.81,.98-1.52,1.61-2.14,.63-.62,1.32-1.01,2.08-1.18,1.06-.24,1.93-.18,2.61,.19,.68,.36,1.25,.92,1.69,1.68,.55-1,1.15-1.82,1.78-2.47,.63-.65,1.34-1.06,2.11-1.24,1.35-.3,2.45-.1,3.3,.6,.85,.7,1.47,1.92,1.85,3.64l1.92,8.55-1.42,.32-1.88-8.36c-.31-1.39-.77-2.36-1.39-2.93-.61-.56-1.42-.73-2.42-.51-.61,.14-1.19,.48-1.72,1.03-.54,.55-1.08,1.31-1.62,2.29l2.25,10-1.42,.32-1.88-8.36c-.31-1.39-.78-2.36-1.4-2.92-.62-.56-1.43-.73-2.43-.5-1.15,.26-2.25,1.36-3.31,3.31l2.25,10-1.44,.33Z"/><path class="f" d="M259.51,353.79c-.31,.1-.6,.08-.9-.08-.29-.15-.49-.4-.61-.74-.11-.32-.09-.63,.06-.92,.14-.29,.37-.48,.67-.58,.32-.11,.63-.09,.9,.06,.28,.15,.47,.38,.58,.71,.11,.34,.1,.66-.03,.96-.13,.29-.36,.49-.69,.6Zm4.6,16.29l-4.32-13,1.41-.47,4.31,13-1.4,.47Z"/><path class="f" d="M276.03,366.04c-1.09,.44-2.18,.58-3.27,.42-1.09-.16-2.09-.64-2.99-1.43s-1.64-1.89-2.21-3.29c-.57-1.41-.79-2.72-.65-3.95,.14-1.22,.55-2.27,1.22-3.15,.68-.88,1.54-1.53,2.57-1.95,.86-.35,1.65-.49,2.36-.42,.71,.07,1.37,.22,1.98,.44l-.38,1.26c-.56-.22-1.12-.36-1.69-.42-.57-.06-1.16,.04-1.77,.29-.84,.34-1.51,.88-1.98,1.62-.48,.74-.75,1.6-.82,2.59-.07,.99,.12,2.03,.56,3.12,.44,1.09,1.01,1.97,1.72,2.64s1.48,1.09,2.35,1.28c.86,.18,1.73,.1,2.61-.26,.67-.27,1.23-.66,1.68-1.16,.45-.5,.81-1.04,1.07-1.62l1.07,.67c-.36,.72-.82,1.37-1.37,1.95-.55,.58-1.23,1.04-2.04,1.37Z"/><path class="f" d="M287.01,360.98c-.9,.45-1.82,.71-2.75,.77s-1.81,0-2.6-.2l.25-1.27c.74,.16,1.48,.24,2.22,.23,.74,0,1.54-.22,2.38-.65,.93-.47,1.52-1.06,1.76-1.76,.24-.71,.2-1.36-.1-1.97-.25-.49-.6-.83-1.07-1.01-.46-.18-.98-.27-1.55-.25-.57,0-1.12,.05-1.67,.11-.72,.09-1.45,.15-2.18,.17s-1.4-.08-2.01-.32c-.61-.24-1.09-.71-1.44-1.41-.45-.9-.49-1.84-.12-2.84,.37-.99,1.19-1.81,2.46-2.45,.68-.34,1.39-.55,2.14-.62,.75-.07,1.44-.04,2.06,.09l-.2,1.25c-.58-.09-1.15-.13-1.72-.12s-1.15,.17-1.74,.46c-.93,.47-1.5,1.04-1.71,1.71-.21,.67-.17,1.27,.1,1.81,.22,.44,.55,.73,.97,.88,.42,.15,.91,.21,1.45,.19s1.09-.06,1.65-.13c.76-.06,1.5-.12,2.25-.16,.74-.04,1.42,.06,2.04,.32,.62,.26,1.13,.79,1.53,1.58,.32,.63,.45,1.28,.39,1.97-.06,.69-.31,1.35-.77,1.98-.46,.63-1.13,1.18-2.03,1.63Z"/></g><text class="e" transform="translate(115.58 297.04) rotate(45.01)"><tspan x="0" y="0">E</tspan></text><text class="e" transform="translate(135.3 316.24) rotate(32.44)"><tspan x="0" y="0">A</tspan></text><text class="e" transform="translate(160.26 331.72) rotate(18.24)"><tspan x="0" y="0">R</tspan></text><text class="e" transform="translate(189.39 340.93) rotate(5)"><tspan x="0" y="0">T</tspan></text><text class="e" transform="translate(219.85 343.09) rotate(-8.82)"><tspan x="0" y="0">H</tspan></text><text class="e" transform="translate(250.16 337.72) rotate(-21.99)"><tspan x="0" y="0">E</tspan></text><text class="e" transform="translate(275.93 327.03) rotate(-35.61)"><tspan x="0" y="0">N</tspan></text><text class="e" transform="translate(303.21 307.41) rotate(-53.13)"><tspan x="0" y="0">W</tspan></text><text class="e" transform="translate(327.59 272.39) rotate(-69.25)"><tspan x="0" y="0">A</tspan></text><text class="e" transform="translate(337.68 244.81) rotate(-83.43)"><tspan x="0" y="0">R</tspan></text><text class="e" transform="translate(340.63 211.93) rotate(-97.11)"><tspan x="0" y="0">E</tspan></text><text class="e" transform="translate(336.85 184.59) rotate(-109.84)"><tspan x="0" y="0">S</tspan></text><text class="e" transform="translate(327.83 161.17) rotate(-117.85)"><tspan x="0" y="0">.</tspan></text></g></g></g></svg>